<svg width="42" height="55" viewBox="0 0 42 55" fill="none" xmlns="http://www.w3.org/2000/svg">
<path d="M42 31.4646C42 48.0985 30.0871 59.0773 21 53.5364C12.8947 58.9743 0 48.7382 0 31.4646C0 21.3946 9.94764 17.07 20.2632 19.6289C32.0524 17.07 42 21.3946 42 31.4646Z" fill="#D10008"/>
<path d="M19.4036 19.6288C19.4079 19.5807 19.0694 14.5667 16.4565 11.8448C13.4653 8.72816 8.40834 9.0514 8.36592 9.05666C7.35903 9.17994 6.42574 8.57331 6.28202 7.69907C6.1383 6.82482 6.83784 6.01448 7.84473 5.88969C8.09667 5.85887 14.0696 5.17557 18.362 9.64826C21.9532 13.3895 21.387 19.5085 21.3611 19.7678C21.2779 20.6 19.3152 20.509 19.4036 19.6288Z" fill="#8D4706"/>
<path d="M34.7198 12.0531C30.0741 16.622 21.3758 16.546 21.3758 16.546C21.3758 16.546 20.2114 9.06199 24.857 4.49307C29.5027 -0.0758452 38.2011 7.85538e-05 38.2011 7.85538e-05C38.2011 7.85538e-05 39.3655 7.48414 34.7198 12.0531Z" fill="#50A822"/>
<path d="M38.201 0L21.3757 16.546C21.3757 16.546 30.0732 16.6226 34.7198 12.053C39.3663 7.48406 38.201 0 38.201 0Z" fill="#578D38"/>
<path d="M35.2444 33.3799C35.2444 27.0874 31.1797 21.6367 25.244 18.9508C23.638 19.0365 21.9714 19.2575 20.2632 19.6289C9.94764 17.07 0 21.3946 0 31.4646C0 36.0305 0.901262 40.0153 2.37653 43.3063C5.73569 47.1265 10.9831 49.5877 16.8842 49.5877C27.0249 49.5877 35.2444 42.3314 35.2444 33.3799Z" fill="#ED1C24"/>
<path d="M17.2398 32.5725C15.8788 36.1446 12.15 38.2855 8.91115 37.3557C5.67232 36.4258 4.15031 32.7755 5.51216 29.2033C6.87314 25.6312 10.602 23.4903 13.8408 24.4209C17.0796 25.3508 18.6017 29.0004 17.2398 32.5725Z" fill="#FF787F"/>
</svg>
