<svg width="43" height="35" viewBox="0 0 43 35" fill="none" xmlns="http://www.w3.org/2000/svg">
<path d="M30.8196 5.74207C34.1318 9.64243 36.0868 14.7242 36.2611 19.887C36.3093 21.315 36.2222 22.767 35.7779 24.1222C35.2482 25.7361 34.2349 27.142 33.0932 28.3818C28.3921 33.4875 21.0784 36.044 14.3674 34.6002C7.65635 33.1568 1.86796 27.6121 0.346632 20.7743C0.10945 19.7091 -0.0299403 18.6169 0.00545997 17.5255C0.0452853 16.2997 0.304149 15.0925 0.616114 13.9084C0.884271 12.8899 1.1927 11.8804 1.58697 10.9057C3.42513 6.36197 7.20411 2.68107 11.7309 1.0232C18.1472 -1.32652 26.3017 0.421846 30.8196 5.74207Z" fill="#FF9710"/>
<path d="M14.2214 4.97107C17.8782 5.32174 21.5957 5.69594 24.9945 7.11943C28.3934 8.54247 31.4887 11.1913 32.595 14.7726C32.7167 15.1658 32.9751 15.6694 33.3632 15.5581C33.7428 15.4495 33.7216 14.8934 33.6052 14.5084C32.3087 10.2076 29.5262 6.3923 25.8645 3.89508C22.7338 1.75984 18.8818 0.537245 15.1081 0.546747C11.9203 0.554891 10.1919 4.58465 14.2214 4.97107Z" fill="#FFAB17"/>
<path d="M24.5361 8.52706C25.141 8.95284 25.7424 9.58269 25.6698 10.3302C25.5809 11.2464 24.5649 11.7252 23.6816 11.9043C21.9784 12.2496 20.1916 12.1564 18.5318 11.6351C17.0565 11.1718 15.6104 10.2962 14.9214 8.88406C12.5903 4.10364 22.9511 7.4117 24.5361 8.52706Z" fill="#FE6701"/>
<path d="M22.9489 9.9121C23.3263 10.1777 23.7011 10.5705 23.656 11.0365C23.6002 11.608 22.967 11.9066 22.4161 12.0184C21.3536 12.2338 20.2394 12.1754 19.204 11.8505C18.2836 11.5614 17.3817 11.0152 16.9521 10.1343C15.498 7.15289 21.9603 9.21619 22.9489 9.9121Z" fill="#BF4D01"/>
<path d="M20.1522 8.64838C19.8862 9.4289 19.5738 10.1931 19.2171 10.9347C19.1658 11.0415 18.7304 11.884 18.7291 12.0026" stroke="#6D4723" stroke-width="2.7705" stroke-miterlimit="10" stroke-linecap="round" stroke-linejoin="round"/>
<path d="M21.389 7.79453C21.4186 8.20176 21.4907 8.61849 21.704 8.96328C21.3332 9.19223 20.9916 9.47005 20.6894 9.78769C20.6465 9.83249 20.6035 9.87909 20.55 9.90941C20.5093 9.93203 20.4641 9.9447 20.419 9.95556C20.073 10.0384 19.7052 10.0216 19.3676 9.9076C19.3371 9.89719 19.3061 9.88543 19.2831 9.8628C19.2278 9.80715 19.2424 9.71529 19.2477 9.63611C19.2658 9.35919 19.1172 9.10264 18.9738 8.8669C18.8981 8.74247 18.8224 8.61849 18.7472 8.49406C18.8685 8.39542 18.9632 8.26782 19.0552 8.14022C19.3849 7.68457 19.6013 7.35427 19.7296 6.77781C19.7367 6.74659 20.0323 6.67781 20.0637 6.67872C20.0778 6.67917 20.0907 6.68596 20.1035 6.69184C20.2287 6.74976 20.3734 6.7208 20.5093 6.70225C20.6911 6.67736 20.8757 6.67374 21.058 6.69093C21.1567 6.69998 21.5027 6.70677 21.5372 6.83346C21.5536 6.89229 21.5394 6.90089 21.5151 6.94885C21.4775 7.0226 21.4138 7.14658 21.4009 7.22803C21.3704 7.41535 21.3753 7.6063 21.389 7.79453Z" fill="#855634"/>
<path d="M19.7163 9.91623C19.7818 9.88772 19.8363 9.83976 19.8911 9.79316C20.2752 9.46466 20.7009 9.18684 21.1536 8.96829C20.9483 8.54568 20.9142 8.05791 20.9275 7.58598C20.9337 7.36788 20.95 7.14752 21.0067 6.93622C21.0244 6.8697 21.0753 6.78102 21.1217 6.70636C21.258 6.71586 21.5107 6.73667 21.5403 6.84436C21.5567 6.90318 21.5426 6.91178 21.5182 6.95975C21.4806 7.0335 21.4173 7.15748 21.404 7.23893C21.3735 7.4258 21.3788 7.61674 21.3925 7.80497C21.4222 8.2122 21.4943 8.62893 21.7076 8.97417C21.3368 9.20358 20.9952 9.48095 20.6929 9.79859C20.65 9.84384 20.6071 9.88999 20.5536 9.9203C20.5128 9.94293 20.4677 9.9556 20.4226 9.96646C20.1252 10.038 19.8119 10.0307 19.5154 9.95605C19.5305 9.95424 19.546 9.95514 19.5615 9.95333C19.6137 9.94655 19.6672 9.9375 19.7163 9.91623Z" fill="#6D4723"/>
<path d="M21.0571 6.46109C21.1934 6.49276 21.3293 6.5439 21.4359 6.6362C21.5116 6.70181 21.574 6.80542 21.5408 6.9009C21.5262 6.94343 21.4943 6.97737 21.4607 7.00632C21.3881 7.06922 21.3027 7.11447 21.2164 7.15474C20.8407 7.32894 20.3916 7.40767 20.0208 7.22306C19.9292 7.17736 19.8429 7.11447 19.7858 7.02805C19.7292 6.94117 19.7057 6.8276 19.7411 6.72986C19.7827 6.61629 19.9504 6.51086 20.3058 6.46018C20.5558 6.42444 20.8111 6.40362 21.0571 6.46109Z" fill="#AD7D51"/>
<path d="M25.567 11.0311C28.9641 9.55871 33.1874 11.0365 36.3756 9.13791C38.8501 7.66419 40.2152 4.3955 42.9999 3.71452C39.9878 4.25478 37.0084 2.11003 33.9751 2.50595C33.0077 2.63219 32.0918 3.01272 31.1891 3.39009C27.9911 4.7258 24.6639 6.15427 22.4275 8.84651C21.9571 9.41301 21.9513 10.0818 22.5731 10.6428C23.3811 11.3713 24.8117 11.3582 25.567 11.0311Z" fill="#4F6E1D"/>
<path d="M32.4388 5.87555C33.5919 5.59004 34.7601 5.37329 35.9274 5.15701C38.2028 4.7353 40.7246 4.13577 43 3.71452C39.9879 4.25478 37.0085 2.11003 33.9751 2.50595C33.0078 2.63219 32.0918 3.01272 31.1891 3.39009C27.9907 4.7258 24.664 6.15427 22.4275 8.84651C22.2311 9.08316 22.0979 9.51482 22.0532 9.97816C25.4069 8.33205 28.8248 6.77055 32.4388 5.87555Z" fill="#2F5720"/>
<path d="M19.0375 12.0288C19.0092 12.0754 19.0233 12.136 19.0684 12.165C19.114 12.1939 19.1733 12.1795 19.2016 12.1333C19.4742 11.6849 19.8703 11.3234 20.3052 11.0265C20.7416 10.7284 21.2172 10.4876 21.6952 10.2496C22.4235 9.88721 23.155 9.53111 23.8886 9.18089C23.9298 9.18949 23.9718 9.17049 23.9922 9.13157C24.0599 9.09945 24.1276 9.06687 24.1957 9.03474C24.198 9.03519 24.2002 9.03701 24.2024 9.03701C24.8524 9.12388 25.5007 9.21302 26.1374 9.36505C26.7724 9.51663 27.3986 9.73382 27.965 10.0745C27.4136 9.70894 26.7924 9.46188 26.1587 9.28089C25.6002 9.12117 25.0307 9.01076 24.4621 8.90805C24.502 8.8895 24.5409 8.87004 24.5807 8.85149C25.4219 8.45919 26.2698 8.08137 27.126 7.72482C27.445 7.90943 27.7836 8.04427 28.123 8.16825C28.473 8.2954 28.8265 8.40852 29.1774 8.52887C29.5279 8.64923 29.8766 8.77547 30.2133 8.93112C30.5483 9.08723 30.8771 9.27184 31.1461 9.53382C30.8846 9.26369 30.5594 9.06823 30.2271 8.90126C29.893 8.7352 29.5461 8.5981 29.1987 8.46688C28.8509 8.33612 28.5009 8.21259 28.1566 8.07594C27.8539 7.95513 27.5543 7.82437 27.2756 7.66193C28.3411 7.22212 29.4204 6.81715 30.5182 6.46829C30.5244 6.46648 30.5306 6.46467 30.5364 6.46286C30.8364 6.69543 31.155 6.89226 31.4745 7.08592L32.4537 7.66555C32.7785 7.86102 33.1002 8.06101 33.4091 8.28137C33.7158 8.50308 34.0158 8.74199 34.2543 9.04198C34.0233 8.73566 33.7286 8.48724 33.4268 8.25648C33.1228 8.02662 32.8055 7.81712 32.4852 7.6126L31.5218 7.00629C31.2329 6.82077 30.9457 6.63118 30.6789 6.41897C30.778 6.3882 30.8775 6.35789 30.9771 6.32803C31.0094 6.33436 31.0422 6.32486 31.0643 6.30133C31.7829 6.0855 32.5086 5.8941 33.2401 5.72804C33.2441 5.73166 33.2454 5.73754 33.2503 5.74025C33.2799 5.75609 33.3166 5.74388 33.3317 5.71356C33.333 5.7113 33.3343 5.70858 33.3357 5.70587C33.3719 5.69773 33.4082 5.68912 33.4445 5.68098C33.4458 5.69501 33.4503 5.70904 33.4609 5.71944C33.7313 5.98776 34.0463 6.18821 34.3627 6.37689C34.6804 6.56422 35.0057 6.73525 35.3274 6.91172C35.6486 7.08864 35.9681 7.26918 36.2695 7.47868C36.5681 7.68862 36.858 7.92753 37.0545 8.24517C36.8668 7.9221 36.5814 7.67279 36.2867 7.45334C35.9893 7.23434 35.6734 7.04384 35.3566 6.85742C35.0393 6.67146 34.7189 6.49182 34.4092 6.29725C34.1091 6.10721 33.8131 5.90405 33.5684 5.65293C33.5804 5.65021 33.5923 5.6475 33.6042 5.64478C34.645 5.41718 35.6946 5.23393 36.7403 5.02443C38.8307 4.60408 40.906 4.11134 42.9999 3.71316C40.9029 4.09595 38.8236 4.57287 36.7314 4.97738C35.6853 5.17919 34.6335 5.35339 33.5897 5.57374C33.5197 5.58822 33.4498 5.60497 33.3799 5.6199C33.9189 4.5611 34.4676 3.49687 35.2397 2.59282C34.4145 3.49552 33.8158 4.58372 33.2259 5.65383C32.5183 5.80858 31.8152 5.98686 31.1183 6.18821C31.3816 5.5466 31.6484 4.9077 31.9772 4.30092C32.3192 3.66972 32.7334 3.07064 33.264 2.58423C32.7122 3.04485 32.267 3.6299 31.8935 4.2507C31.5192 4.87331 31.2108 5.53348 30.9068 6.19047C30.9063 6.19183 30.9054 6.19318 30.905 6.19454C30.897 6.21354 30.8975 6.23346 30.901 6.25201C30.793 6.28414 30.6846 6.31536 30.5771 6.34839C30.5528 6.33888 30.5249 6.34205 30.5081 6.36422C30.5072 6.36558 30.5076 6.36784 30.5067 6.3692C30.5005 6.37101 30.4943 6.37282 30.4881 6.37463C29.6704 6.62711 28.8633 6.91127 28.0641 7.21714C28.3017 6.63299 28.5429 6.05201 28.8416 5.49999C29.1509 4.92761 29.5266 4.38509 30.0089 3.94664C29.5071 4.36201 29.1031 4.89141 28.7655 5.45429C28.4265 6.01853 28.1486 6.61761 27.8747 7.21307C27.8743 7.21443 27.8734 7.21578 27.8729 7.21669C27.8628 7.24157 27.865 7.26782 27.8756 7.28999C27.6234 7.38772 27.3716 7.48772 27.1207 7.58953C27.111 7.59044 27.1043 7.59451 27.0959 7.59949C26.229 7.95197 25.3706 8.32662 24.5197 8.7153C24.4126 8.76416 24.3059 8.81574 24.1988 8.86506C24.1829 8.86778 24.1687 8.87411 24.1568 8.88452C24.1351 8.89447 24.1134 8.90488 24.0922 8.91484C24.3227 8.41575 24.6201 7.94246 24.9378 7.48772C25.3033 6.97144 25.6994 6.47644 26.1233 6.00632C25.6759 6.45336 25.2542 6.92801 24.8604 7.42754C24.4701 7.92934 24.0993 8.4524 23.8192 9.04062L23.8187 9.04198C23.0828 9.38587 22.3501 9.73563 21.6204 10.0922C21.1398 10.327 20.6557 10.5664 20.2035 10.8704C19.753 11.1727 19.3317 11.5483 19.0361 12.0261L19.0375 12.0288Z" fill="#699327"/>
<path d="M18.784 11.5682C21.5346 12.6288 24.7861 12.7066 26.9455 14.746C28.9359 16.6251 29.4001 19.6825 29.1399 22.4399C28.8031 26.009 27.1039 29.8143 23.8161 31.0609C22.9333 31.3958 21.9877 31.5247 21.0474 31.5736C17.1887 31.7745 13.2748 30.6202 10.1136 28.3492C6.95231 26.0782 4.56324 22.7046 3.43928 18.9246C3.06979 17.6821 2.83305 16.3649 3.0481 15.0849C3.35564 13.2573 4.57784 11.68 6.09784 10.6682C7.859 9.49586 10.5242 8.54294 12.6283 8.90764C14.8302 9.28953 16.7232 10.7737 18.784 11.5682Z" fill="#FFAB17"/>
<path d="M25.3371 16.1572C25.5154 17.131 25.1685 18.1563 24.5539 18.9223C23.9392 19.6884 23.0812 20.2173 22.1803 20.582C18.3208 22.1444 13.4789 20.5178 11.2774 16.9192C10.6748 15.9337 10.253 14.7147 10.623 13.6157C11.0173 12.4447 12.2368 11.727 13.4417 11.5985C15.7029 11.3574 17.9783 12.6044 20.2364 12.7655C22.2427 12.9094 24.9066 13.8053 25.3371 16.1572Z" fill="#FDC029"/>
<path d="M19.6814 14.2242C20.2956 13.9668 21.0519 14.1107 21.5337 14.5776C21.8338 14.8681 22.0068 15.4075 21.7006 15.6907C21.5581 15.8228 21.3545 15.855 21.1638 15.8794C20.7607 15.9314 20.3452 15.9753 19.9536 15.8645C19.562 15.7536 19.1956 15.4523 19.1217 15.0441C19.0473 14.636 19.3721 14.1659 19.777 14.2003" fill="white"/>
<path d="M17.9451 14.0849C17.8114 14.2799 17.6052 14.4116 17.3902 14.503C17.0769 14.6364 16.7331 14.6944 16.3946 14.6722C15.9069 14.6396 15.4445 14.4441 15.0038 14.2283C14.7148 14.0871 14.4219 13.9288 14.2214 13.6731C14.021 13.4179 13.936 13.0406 14.0993 12.7587C14.2719 12.4609 14.6453 12.3668 14.9812 12.3243C15.702 12.2324 19.0611 12.4569 17.9451 14.0849Z" fill="white"/>
</svg>
