<svg width="228" height="313" viewBox="0 0 228 313" fill="none" xmlns="http://www.w3.org/2000/svg">
<path d="M111.723 113.604C126.533 113.977 141.503 114.372 155.824 118.165C170.145 121.958 183.974 129.527 192.47 141.664C201.825 155.026 203.683 172.108 204.621 188.393C206.176 215.403 205.998 242.542 203.348 269.467C202.005 283.114 197.168 295.787 184.477 300.982C169.213 307.232 148.705 300.982 148.705 300.982" fill="#263238"/>
<path d="M151.446 297.732C151.446 297.732 151.636 297.714 152.007 297.705C152.398 297.699 152.946 297.69 153.654 297.679C155.123 297.668 157.253 297.651 159.986 297.63C162.735 297.612 166.104 297.647 169.963 297.106C170.923 296.949 171.926 296.835 172.934 296.579C173.441 296.466 173.956 296.352 174.479 296.235C174.996 296.098 175.514 295.933 176.044 295.779C177.113 295.501 178.156 295.051 179.248 294.652C180.3 294.16 181.407 293.704 182.448 293.063C184.564 291.857 186.639 290.306 188.395 288.307C190.149 286.317 191.564 283.868 192.311 281.111C193.734 275.532 194.333 269.357 194.556 262.878C194.761 256.391 194.688 249.563 194.746 242.49C194.778 235.416 194.811 228.093 194.846 220.592C194.878 213.088 194.955 205.764 194.712 198.7C194.466 191.639 193.913 184.832 192.802 178.439C190.642 165.649 186.164 154.557 180.39 146.621C177.515 142.649 174.37 139.482 171.548 136.798C168.702 134.13 166.14 131.95 164.038 130.18C161.94 128.429 160.305 127.064 159.178 126.123C158.638 125.665 158.22 125.311 157.922 125.058C157.641 124.816 157.505 124.681 157.505 124.681C157.505 124.681 157.663 124.788 157.955 125.017C158.261 125.26 158.69 125.601 159.244 126.042C160.386 126.966 162.042 128.305 164.167 130.025C166.29 131.773 168.873 133.933 171.746 136.587C174.594 139.259 177.771 142.419 180.687 146.407C186.539 154.369 191.078 165.518 193.273 178.36C194.402 184.78 194.967 191.609 195.22 198.685C195.47 205.764 195.396 213.095 195.365 220.598C195.327 228.099 195.29 235.422 195.255 242.496C195.19 249.569 195.253 256.391 195.035 262.898C194.797 269.398 194.183 275.595 192.727 281.226C191.952 284.053 190.492 286.553 188.695 288.576C186.896 290.608 184.78 292.173 182.629 293.386C181.57 294.03 180.448 294.486 179.381 294.978C178.275 295.376 177.218 295.824 176.138 296.099C175.603 296.251 175.079 296.414 174.557 296.549C174.029 296.663 173.51 296.775 172.998 296.886C171.98 297.136 170.97 297.245 170.002 297.396C166.115 297.913 162.728 297.848 159.985 297.835C157.251 297.814 155.121 297.797 153.653 297.786C152.945 297.775 152.397 297.766 152.006 297.76C151.636 297.75 151.446 297.732 151.446 297.732Z" fill="#455A64"/>
<path d="M195.065 224.469C195.03 224.34 197.327 223.671 200.258 223.539C203.189 223.394 205.539 223.845 205.516 223.976C205.498 224.129 203.16 223.916 200.283 224.059C197.406 224.188 195.097 224.62 195.065 224.469Z" fill="#455A64"/>
<path d="M131.073 114.383C131.073 114.374 131.203 114.371 131.457 114.372C131.737 114.377 132.11 114.384 132.585 114.393C133.576 114.432 135.044 114.427 136.925 114.557C140.669 114.942 146.13 115.664 152.524 117.886C153.316 118.18 154.127 118.48 154.955 118.788C155.369 118.943 155.788 119.099 156.211 119.257C156.622 119.443 157.038 119.632 157.458 119.822C158.298 120.203 159.155 120.591 160.027 120.987C160.903 121.378 161.741 121.883 162.623 122.339C166.144 124.179 169.704 126.525 173.227 129.267C176.75 132.01 180.229 135.189 183.425 138.86C186.628 142.517 189.494 146.736 191.676 151.414C196.134 160.761 198.071 170.547 199.056 179.39C199.999 188.27 200.039 196.313 200.091 203.047C200.116 209.785 200.135 215.235 200.229 219C200.281 220.859 200.322 222.315 200.35 223.335C200.363 223.81 200.373 224.183 200.38 224.463C200.384 224.717 200.381 224.848 200.373 224.848C200.364 224.848 200.349 224.719 200.327 224.465C200.307 224.186 200.28 223.813 200.245 223.339C200.175 222.349 200.1 220.888 200.026 219.005C199.87 215.239 199.794 209.785 199.722 203.049C199.623 196.318 199.544 188.285 198.578 179.441C197.57 170.633 195.626 160.906 191.205 151.638C189.037 146.993 186.214 142.832 183.039 139.194C179.873 135.546 176.422 132.379 172.93 129.644C169.436 126.909 165.908 124.564 162.416 122.718C161.541 122.261 160.71 121.753 159.842 121.361C158.977 120.963 158.127 120.572 157.294 120.189C156.878 119.997 156.466 119.807 156.058 119.62C155.639 119.46 155.223 119.302 154.813 119.146C153.991 118.835 153.187 118.53 152.401 118.233C146.057 115.979 140.632 115.205 136.905 114.759C135.033 114.599 133.569 114.571 132.581 114.498C132.107 114.468 131.734 114.444 131.455 114.426C131.203 114.406 131.073 114.392 131.073 114.383Z" fill="#E0E0E0"/>
<path d="M121.814 114.348C121.814 114.348 125.447 104.758 138.376 106.574C138.376 106.574 144.14 106.257 145.183 109.459C145.183 109.459 133.14 106.467 128.011 114.802L121.814 114.348Z" fill="#263238"/>
<path d="M158.666 126.032H151.093C151.093 126.032 149.624 106.003 131.265 106.778C131.265 106.778 154.086 99.1385 158.666 126.032Z" fill="#455A64"/>
<path d="M195.178 236.684L206.032 238.194L204.951 242.053L194.815 241.272L195.178 236.684Z" fill="#455A64"/>
<path d="M195.837 240.182C195.772 240.131 196.27 239.376 197.108 238.232L197.259 238.025L197.429 238.232C197.911 238.818 198.416 239.432 198.944 240.075L198.595 240.027C198.947 239.767 199.308 239.499 199.681 239.223C200.066 238.944 200.438 238.674 200.802 238.41L201.01 238.259L201.155 238.463C201.642 239.148 202.104 239.798 202.547 240.422L202.266 240.378C203.423 239.606 204.179 239.153 204.226 239.22C204.274 239.286 203.604 239.858 202.502 240.707L202.348 240.826L202.222 240.663C201.752 240.058 201.263 239.428 200.748 238.765L201.101 238.818C200.739 239.086 200.37 239.359 199.988 239.642C199.612 239.914 199.248 240.178 198.894 240.435L198.691 240.582L198.544 240.387C198.042 239.723 197.564 239.089 197.106 238.483H197.427C196.516 239.57 195.902 240.233 195.837 240.182Z" fill="#E8505B"/>
<path d="M37.341 308.156C37.341 308.156 35.237 301.317 35.658 298.424C36.08 295.53 39.971 292.9 39.971 292.9L35.751 183.245C35.751 183.245 35.204 135.285 60.588 120.377L75.738 116.56L113.11 114.348C114.319 114.751 158.236 131.27 164.28 137.717L145.343 234.415C145.343 234.415 147.644 262.989 149.942 283.522C150.412 287.717 153.558 308.455 153.558 308.455L37.341 308.156Z" fill="#E8505B"/>
<g opacity="0.3">
<path d="M149.245 277.065C148.892 279.732 147.879 282.981 145.318 283.807C142.757 284.633 139.978 284.394 137.329 283.922C127.964 282.254 119.342 277.853 110.88 273.506C95.0639 265.382 79.1029 257.164 65.4489 245.774C63.5299 244.173 61.4789 241.674 62.6539 239.469C63.9869 236.969 67.7329 237.808 70.3059 238.994C97.1289 251.359 122.424 264.7 149.245 277.065Z" fill="black"/>
</g>
<path d="M54.9169 123.365C54.9169 123.365 38.1899 128.947 32.7809 144.444C26.8039 161.568 22.8379 194.808 22.8379 194.808L39.3659 196.885L54.9169 123.365Z" fill="#E8505B"/>
<path d="M164.279 137.716C164.279 137.716 173.253 149.514 177.618 163.855C181.983 178.196 184.477 219.752 184.477 219.752L139.48 219.126L137.088 182.562C137.088 182.562 132.546 121.553 164.279 137.716Z" fill="#E8505B"/>
<path d="M28.741 159.382C28.741 159.382 29.068 158.874 29.983 158.208C30.88 157.563 32.575 156.879 34.718 157.3C36.899 157.623 39.015 159.334 41.805 160.398C43.185 160.931 44.8 161.343 46.441 160.972C48.087 160.613 49.514 159.436 51.017 158.291C51.777 157.72 52.575 157.127 53.521 156.721C54.45 156.302 55.605 156.165 56.629 156.587C57.674 156.969 58.448 157.847 59.047 158.744C59.665 159.648 60.165 160.63 60.815 161.51C61.45 162.393 62.288 163.16 63.353 163.472C64.402 163.818 65.581 163.736 66.697 163.445C67.822 163.156 68.913 162.651 69.952 162.041C70.987 161.431 71.992 160.684 73.067 160.021C74.137 159.35 75.278 158.72 76.545 158.331C77.805 157.958 79.23 157.867 80.53 158.322C81.835 158.749 82.97 159.555 83.992 160.434C85.025 161.309 85.986 162.267 87.048 163.095C88.1 163.924 89.28 164.641 90.608 164.84C91.919 165.096 93.307 164.914 94.598 164.427C97.2 163.449 99.495 161.683 102.051 160.273C103.333 159.579 104.666 158.921 106.123 158.648C107.567 158.373 109.099 158.467 110.46 158.989C113.187 160.052 115.206 162.113 117.627 163.266C118.224 163.569 118.854 163.777 119.488 163.931C120.127 164.065 120.781 164.09 121.426 164.054C122.724 163.965 123.975 163.529 125.152 162.987C127.522 161.917 129.666 160.418 132.112 159.613C133.325 159.214 134.635 159.031 135.891 159.274C137.157 159.489 138.264 160.184 139.18 160.956C141.016 162.491 142.459 164.436 144.558 165.09C145.584 165.414 146.675 165.389 147.708 165.18C148.746 164.974 149.739 164.619 150.717 164.278C152.646 163.602 154.669 162.901 156.627 163.347C157.599 163.539 158.441 164.049 159.167 164.601C159.894 165.162 160.532 165.775 161.17 166.337C161.806 166.902 162.455 167.408 163.148 167.785C163.841 168.158 164.585 168.376 165.315 168.484C166.785 168.695 168.191 168.463 169.399 168.066C170.615 167.668 171.641 167.078 172.51 166.48C174.243 165.268 175.395 164.071 176.194 163.293C176.576 162.911 176.874 162.612 177.093 162.393C177.297 162.191 177.404 162.09 177.411 162.096C177.418 162.102 177.323 162.215 177.132 162.429C176.922 162.658 176.636 162.968 176.269 163.366C175.493 164.169 174.363 165.392 172.626 166.646C171.757 167.263 170.719 167.879 169.479 168.301C168.247 168.721 166.805 168.977 165.275 168.772C164.514 168.667 163.734 168.446 163.003 168.06C162.274 167.672 161.6 167.153 160.953 166.586C159.663 165.49 158.379 164.081 156.547 163.706C154.726 163.298 152.779 163.966 150.85 164.657C149.873 165.002 148.868 165.369 147.789 165.589C146.717 165.812 145.544 165.851 144.428 165.502C143.307 165.162 142.342 164.452 141.47 163.684C140.596 162.91 139.791 162.054 138.887 161.309C137.992 160.563 136.969 159.93 135.801 159.735C134.643 159.515 133.424 159.684 132.26 160.069C129.913 160.844 127.774 162.339 125.358 163.44C124.155 163.996 122.852 164.459 121.463 164.558C120.774 164.598 120.068 164.571 119.38 164.428C118.7 164.265 118.029 164.042 117.405 163.727C114.882 162.516 112.862 160.47 110.276 159.475C108.993 158.987 107.587 158.904 106.223 159.16C104.851 159.415 103.558 160.049 102.3 160.731C99.787 162.113 97.482 163.896 94.772 164.916C93.426 165.423 91.928 165.627 90.511 165.348C89.07 165.127 87.809 164.352 86.731 163.498C84.565 161.806 82.827 159.604 80.375 158.796C79.176 158.374 77.876 158.453 76.682 158.8C75.484 159.165 74.373 159.769 73.318 160.429C72.253 161.082 71.261 161.817 70.185 162.447C69.115 163.07 67.989 163.589 66.807 163.889C65.636 164.19 64.369 164.281 63.214 163.897C62.042 163.55 61.115 162.685 60.463 161.766C59.79 160.844 59.293 159.856 58.697 158.978C58.116 158.101 57.406 157.305 56.479 156.962C55.561 156.58 54.543 156.691 53.666 157.076C52.778 157.451 51.991 158.022 51.234 158.585C49.733 159.709 48.264 160.922 46.508 161.295C44.764 161.673 43.093 161.222 41.695 160.668C38.862 159.552 36.785 157.835 34.676 157.498C32.594 157.058 30.94 157.688 30.037 158.294C29.123 158.921 28.769 159.411 28.741 159.382Z" fill="#FAFAFA"/>
<path d="M23.439 186.419C23.44 186.41 23.59 186.419 23.881 186.445C24.196 186.477 24.624 186.52 25.173 186.576C26.309 186.646 27.99 187.122 30.092 186.45C31.152 186.217 32.344 186.005 33.642 185.783C34.938 185.556 36.34 185.239 37.881 185.058C39.413 184.876 41.13 184.875 42.826 185.415C44.525 185.916 46.174 186.785 47.992 187.395C49.803 188.031 51.851 188.109 53.877 187.565C55.916 187.084 57.917 186.147 60.082 185.396C62.211 184.629 64.683 184.04 67.132 184.713C69.554 185.394 71.504 187.179 73.931 187.773C74.533 187.916 75.152 187.958 75.771 187.902C76.391 187.833 77.007 187.669 77.615 187.461C78.834 187.037 80.013 186.418 81.307 185.97C82.574 185.5 84.088 185.3 85.451 185.83C86.806 186.349 87.852 187.335 88.95 188.152C89.5 188.563 90.071 188.943 90.69 189.204C91.306 189.466 91.975 189.576 92.65 189.573C94.01 189.522 95.336 188.983 96.63 188.383C97.929 187.786 99.245 187.114 100.708 186.746C101.444 186.59 102.211 186.49 102.98 186.591C103.748 186.679 104.485 186.947 105.158 187.299C106.51 188.012 107.626 189.002 108.815 189.812C109.409 190.217 110.024 190.578 110.674 190.83C111 190.952 111.329 191.065 111.673 191.11L112.183 191.2L112.702 191.218C114.093 191.252 115.464 190.846 116.781 190.365C118.105 189.885 119.402 189.322 120.76 188.916C122.105 188.513 123.57 188.26 124.974 188.613C126.396 188.917 127.549 189.83 128.526 190.748C129.51 191.677 130.402 192.66 131.45 193.39C132.488 194.128 133.738 194.466 134.965 194.391C136.198 194.314 137.376 193.858 138.483 193.323C139.594 192.783 140.649 192.151 141.716 191.56C143.818 190.396 146.129 189.317 148.518 189.593C150.884 189.871 152.816 191.18 154.52 192.405C156.239 193.643 157.805 194.955 159.541 195.768C161.256 196.614 163.057 197.05 164.779 197.191C166.507 197.297 168.139 197.124 169.635 196.815C172.61 196.096 174.966 194.776 176.622 193.407C178.292 192.033 179.256 190.634 179.876 189.687C180.16 189.196 180.345 188.802 180.489 188.547C180.627 188.29 180.703 188.159 180.711 188.163C180.719 188.167 180.66 188.304 180.537 188.57C180.409 188.833 180.238 189.237 179.966 189.74C179.371 190.712 178.423 192.146 176.752 193.563C175.094 194.973 172.72 196.341 169.701 197.099C168.183 197.428 166.522 197.618 164.756 197.522C162.997 197.391 161.147 196.958 159.38 196.099C157.587 195.269 156.001 193.951 154.286 192.731C152.588 191.519 150.698 190.27 148.473 190.023C146.239 189.77 144.026 190.794 141.939 191.96C140.883 192.549 139.824 193.188 138.69 193.745C137.56 194.295 136.33 194.782 134.996 194.87C133.671 194.96 132.281 194.58 131.174 193.793C130.06 193.019 129.154 192.018 128.187 191.111C127.225 190.21 126.152 189.376 124.861 189.104C123.584 188.782 122.214 189.011 120.907 189.405C119.591 189.8 118.301 190.361 116.958 190.849C115.622 191.337 114.196 191.77 112.692 191.736L112.131 191.715L111.574 191.618C111.2 191.567 110.838 191.445 110.487 191.313C109.783 191.04 109.135 190.657 108.523 190.24C107.301 189.405 106.193 188.428 104.919 187.759C104.285 187.427 103.612 187.185 102.918 187.106C102.223 187.014 101.518 187.105 100.829 187.25C99.45 187.595 98.158 188.248 96.846 188.852C95.541 189.454 94.157 190.029 92.663 190.086C91.921 190.091 91.17 189.965 90.492 189.675C89.813 189.388 89.21 188.982 88.645 188.559C87.522 187.714 86.501 186.767 85.274 186.3C84.053 185.827 82.701 185.989 81.47 186.439C80.225 186.865 79.04 187.484 77.777 187.922C77.144 188.137 76.493 188.311 75.821 188.384C75.148 188.444 74.467 188.395 73.822 188.24C71.227 187.58 69.299 185.79 67.007 185.154C64.709 184.513 62.338 185.051 60.224 185.804C58.082 186.536 56.064 187.471 53.972 187.955C51.903 188.506 49.724 188.412 47.876 187.744C46.021 187.107 44.386 186.232 42.731 185.732C41.085 185.196 39.43 185.183 37.913 185.348C36.392 185.512 34.989 185.815 33.684 186.028C32.379 186.237 31.194 186.432 30.133 186.649C29.601 186.752 29.104 186.871 28.621 186.94C28.135 187.011 27.674 186.985 27.258 186.947C26.424 186.86 25.726 186.757 25.16 186.681C24.613 186.604 24.187 186.543 23.874 186.499C23.585 186.455 23.438 186.428 23.439 186.419Z" fill="#FAFAFA"/>
<path d="M40.0869 210.001C40.0879 209.992 40.1889 209.996 40.3849 210.012C40.6099 210.034 40.8959 210.063 41.2539 210.098C42.0169 210.182 43.1389 210.329 44.5809 210.545C47.4659 210.943 51.6089 211.8 56.7859 212.228C59.3769 212.446 62.2139 212.426 65.2559 212.076C66.7799 211.937 68.3879 211.798 70.0439 212.036C70.8679 212.157 71.6989 212.382 72.4819 212.754C73.2669 213.126 73.9739 213.639 74.6569 214.172C76.0179 215.223 77.3099 216.496 78.9729 216.999C79.7949 217.258 80.6769 217.212 81.5299 216.98C82.3859 216.739 83.2129 216.334 84.0659 215.941C84.9209 215.555 85.8129 215.145 86.8149 215.017C87.8079 214.859 88.8859 215.11 89.7369 215.65C91.4629 216.7 92.5949 218.449 94.3589 219.194C96.1289 219.968 98.1269 219.484 99.9379 218.948C101.774 218.404 103.602 217.686 105.555 217.644C106.521 217.635 107.504 217.812 108.368 218.227C109.235 218.634 109.984 219.203 110.678 219.791C112.06 220.964 113.279 222.269 114.8 222.968C116.314 223.702 118.026 223.487 119.537 222.98C121.074 222.499 122.489 221.752 124.03 221.403C125.538 221.067 127.16 221.028 128.503 221.735C129.163 222.088 129.705 222.643 130.028 223.281C130.354 223.917 130.519 224.576 130.728 225.182C130.929 225.791 131.191 226.35 131.59 226.783C131.985 227.219 132.492 227.524 133.023 227.707C134.098 228.07 135.227 227.976 136.187 227.689C137.158 227.392 137.949 226.85 138.56 226.226C139.18 225.611 139.636 224.944 140.005 224.325C140.732 223.074 141.125 222.008 141.413 221.3C141.545 220.966 141.65 220.698 141.732 220.488C141.806 220.306 141.847 220.214 141.856 220.217C141.864 220.22 141.839 220.318 141.782 220.506C141.712 220.721 141.623 220.994 141.511 221.336C141.253 222.057 140.891 223.139 140.18 224.426C139.818 225.063 139.365 225.755 138.735 226.4C138.12 227.052 137.286 227.643 136.273 227.966C135.269 228.28 134.084 228.399 132.916 228.02C132.338 227.828 131.775 227.5 131.331 227.02C130.88 226.541 130.59 225.925 130.379 225.303C130.16 224.681 129.99 224.039 129.686 223.461C129.387 222.885 128.907 222.404 128.313 222.09C127.107 221.462 125.571 221.49 124.126 221.825C122.67 222.159 121.251 222.912 119.678 223.416C118.894 223.676 118.059 223.874 117.188 223.912C116.318 223.944 115.415 223.781 114.602 223.404C112.96 222.651 111.717 221.311 110.357 220.17C109.677 219.596 108.958 219.057 108.155 218.683C107.356 218.302 106.467 218.145 105.565 218.153C103.741 218.192 101.945 218.887 100.088 219.443C99.1549 219.721 98.1939 219.978 97.1869 220.078C96.1879 220.177 95.1159 220.103 94.1559 219.671C92.2039 218.821 91.0689 217.041 89.4709 216.092C88.6869 215.6 87.7769 215.389 86.8819 215.525C85.9829 215.636 85.1259 216.02 84.2799 216.402C83.4329 216.79 82.5829 217.206 81.6649 217.464C80.7499 217.714 79.7399 217.764 78.8349 217.474C77.0009 216.904 75.7009 215.58 74.3619 214.547C73.6919 214.02 73.0129 213.526 72.2799 213.175C71.5479 212.822 70.7649 212.605 69.9769 212.486C68.3949 212.25 66.8149 212.373 65.2959 212.504C62.2499 212.837 59.3539 212.837 56.7569 212.593C51.5489 212.115 47.4229 211.202 44.5489 210.743C43.1409 210.512 42.0329 210.33 41.2399 210.2C40.8849 210.144 40.6009 210.098 40.3779 210.063C40.1839 210.031 40.0849 210.01 40.0869 210.001Z" fill="#FAFAFA"/>
<path d="M38.69 276.691C38.687 276.682 38.787 276.642 38.985 276.573C39.209 276.495 39.498 276.394 39.861 276.267C40.632 275.998 41.763 275.588 43.24 275.107C44.719 274.648 46.535 274.033 48.761 273.822C49.884 273.7 51.101 273.982 52.273 274.405C53.457 274.81 54.677 275.343 56.024 275.474C57.372 275.608 58.766 275.169 60.126 274.549C61.496 273.944 62.893 273.151 64.534 272.78C66.18 272.406 67.944 272.634 69.633 273.076C71.329 273.53 72.997 274.196 74.74 274.706C76.47 275.221 78.339 275.562 80.17 275.175C82.005 274.791 83.719 273.807 85.592 273.063C86.528 272.692 87.536 272.389 88.598 272.352C89.657 272.304 90.749 272.597 91.659 273.156C93.489 274.241 94.798 276.018 96.712 276.729C97.656 277.069 98.687 277.046 99.665 276.797C100.648 276.554 101.589 276.132 102.526 275.712C103.464 275.291 104.405 274.853 105.41 274.569C106.406 274.284 107.509 274.184 108.525 274.504C109.557 274.796 110.374 275.497 111.069 276.193C111.771 276.896 112.39 277.64 113.102 278.242C114.487 279.528 116.453 279.698 118.19 279.305C119.958 278.958 121.622 278.27 123.318 277.823C124.172 277.62 125.028 277.413 125.904 277.432C126.768 277.425 127.659 277.591 128.393 278.037C129.165 278.419 129.742 279.071 130.203 279.721C130.661 280.384 131.023 281.073 131.396 281.726C132.115 283.025 133.007 284.23 134.302 284.635C135.566 285.06 136.917 284.783 138.003 284.254C139.104 283.725 140.025 282.979 140.738 282.167C142.14 280.506 142.882 278.719 143.627 277.367C144.342 275.988 144.997 274.964 145.509 274.323C146.022 273.682 146.355 273.405 146.355 273.405C146.375 273.423 146.074 273.731 145.593 274.386C145.113 275.042 144.493 276.071 143.808 277.459C143.089 278.824 142.385 280.62 140.958 282.358C140.231 283.206 139.292 283.987 138.147 284.552C137.02 285.114 135.582 285.438 134.185 284.984C132.753 284.548 131.778 283.228 131.049 281.926C130.292 280.637 129.595 279.137 128.187 278.415C126.823 277.604 125.066 277.836 123.437 278.266C121.777 278.71 120.118 279.407 118.283 279.776C117.374 279.969 116.4 280.059 115.433 279.883C114.941 279.834 114.485 279.622 114.018 279.45C113.57 279.227 113.16 278.938 112.781 278.621C112.024 277.983 111.396 277.229 110.713 276.549C110.035 275.873 109.284 275.243 108.376 274.992C107.477 274.711 106.492 274.794 105.549 275.064C104.6 275.332 103.678 275.76 102.739 276.183C101.799 276.605 100.836 277.041 99.789 277.301C98.752 277.568 97.59 277.6 96.535 277.218C94.421 276.41 93.115 274.601 91.395 273.601C90.547 273.082 89.585 272.827 88.614 272.866C87.644 272.897 86.691 273.176 85.778 273.537C83.95 274.254 82.214 275.256 80.27 275.661C78.317 276.067 76.358 275.693 74.604 275.165C72.831 274.638 71.174 273.968 69.514 273.516C67.863 273.076 66.182 272.855 64.625 273.2C63.068 273.54 61.681 274.308 60.288 274.915C58.907 275.533 57.428 275.994 55.989 275.839C54.561 275.686 53.329 275.126 52.163 274.716C50.997 274.285 49.866 274.009 48.78 274.111C46.609 274.289 44.781 274.871 43.3 275.299C41.847 275.754 40.706 276.111 39.893 276.365C39.523 276.472 39.228 276.556 39 276.622C38.798 276.677 38.693 276.699 38.69 276.691Z" fill="#FAFAFA"/>
<path d="M94.8639 251.922C94.8729 251.938 94.6779 252.062 94.2959 252.287C93.9099 252.503 93.3239 252.797 92.5339 253.092C90.9679 253.679 88.5009 254.239 85.4819 253.818C84.7339 253.698 83.9529 253.537 83.1649 253.279C82.3739 253.025 81.5869 252.666 80.7869 252.33C79.9869 252.006 79.1259 251.725 78.2459 251.81C77.3629 251.889 76.5219 252.33 75.7319 252.89C74.9369 253.45 74.1649 254.121 73.2539 254.678C72.7989 254.956 72.2969 255.188 71.7569 255.334C71.4869 255.416 71.2069 255.441 70.9239 255.46C70.6409 255.503 70.3609 255.468 70.0779 255.442C67.7909 255.15 65.9719 253.641 63.9839 252.634C62.9959 252.12 61.9339 251.721 60.9009 251.844L60.5179 251.893C60.3939 251.922 60.2749 251.976 60.1539 252.016C59.9059 252.086 59.6789 252.202 59.4589 252.334C59.0259 252.612 58.6439 252.975 58.2859 253.36C57.5649 254.128 56.9509 255.016 56.0889 255.695C55.6619 256.03 55.1499 256.296 54.5959 256.381C54.0469 256.467 53.4799 256.377 52.9919 256.146C52.0119 255.663 51.4169 254.809 50.8759 254.048C50.3409 253.27 49.8609 252.502 49.2859 251.873C48.1279 250.627 46.4679 250.114 45.0329 250.179C43.5669 250.212 42.3769 250.941 41.4399 251.625C40.5019 252.327 39.8099 253.087 39.3609 253.776C38.4279 255.175 38.6239 256.192 38.5559 256.172C38.5559 256.172 38.4829 255.941 38.5289 255.495C38.5669 255.051 38.7469 254.396 39.1899 253.668C39.6279 252.94 40.3149 252.139 41.2629 251.395C42.1989 250.676 43.4409 249.876 45.0149 249.812C46.5429 249.72 48.3219 250.236 49.6009 251.579C50.2229 252.246 50.7169 253.027 51.2509 253.786C51.7849 254.533 52.3709 255.319 53.1949 255.711C54.0179 256.112 55.0389 255.935 55.7839 255.303C56.5579 254.693 57.1669 253.818 57.9119 253.014C58.2849 252.612 58.6929 252.216 59.1829 251.9C59.4339 251.748 59.6959 251.614 59.9809 251.53C60.1209 251.484 60.2579 251.424 60.4019 251.39L60.8449 251.33C62.0489 251.192 63.2019 251.645 64.2199 252.172C66.2629 253.222 68.0659 254.679 70.1329 254.936C71.1509 255.064 72.1409 254.786 72.9959 254.252C73.8579 253.732 74.6299 253.072 75.4539 252.498C76.2729 251.925 77.1989 251.437 78.2039 251.355C79.2089 251.269 80.1349 251.593 80.9489 251.931C81.7679 252.286 82.5249 252.642 83.2879 252.897C84.0499 253.158 84.8069 253.325 85.5339 253.454C88.4689 253.911 90.8999 253.422 92.4639 252.9C94.0479 252.375 94.8379 251.87 94.8639 251.922Z" fill="#FAFAFA"/>
<path d="M39.6688 303.408C39.6728 303.4 39.7758 303.428 39.9718 303.491C40.0778 303.526 40.1978 303.565 40.3348 303.61C40.4828 303.64 40.6588 303.656 40.8558 303.685C41.6488 303.784 42.8358 303.555 44.2028 302.873C45.5928 302.262 47.1498 301.125 49.3298 300.615C49.8748 300.495 50.4588 300.476 51.0588 300.531C51.6558 300.619 52.2468 300.823 52.8098 301.11C53.9388 301.689 54.9298 302.572 56.0268 303.368C57.1088 304.162 58.4108 304.862 59.8628 304.728C61.3108 304.614 62.6868 303.835 64.1598 303.176C64.9008 302.846 65.6878 302.539 66.5398 302.39C67.3918 302.238 68.2808 302.28 69.1408 302.444C70.8718 302.765 72.5028 303.509 74.2248 303.977C75.9378 304.492 77.7898 304.467 79.6138 304.058C81.4438 303.669 83.2398 302.95 85.0828 302.246C86.9238 301.548 88.8378 300.826 90.9068 300.57C92.9688 300.253 95.1548 300.671 97.0748 301.545C99.0178 302.387 100.789 303.471 102.653 304.223C104.502 304.987 106.511 305.293 108.366 304.752C112.101 303.68 114.828 300.655 118.379 299.484C120.129 298.861 122.067 298.89 123.723 299.457C125.406 299.983 126.844 300.901 128.2 301.772C129.552 302.658 130.818 303.56 132.109 304.291C133.394 305.034 134.716 305.557 136.034 305.862C138.687 306.439 141.201 306.16 143.263 305.557C145.335 304.941 146.963 303.972 148.163 303.046C150.575 301.151 151.286 299.509 151.366 299.581C151.374 299.586 151.322 299.678 151.215 299.855C151.089 300.055 150.928 300.312 150.725 300.636C150.234 301.275 149.507 302.247 148.289 303.205C147.091 304.169 145.451 305.181 143.348 305.836C141.254 306.477 138.689 306.792 135.956 306.222C134.6 305.921 133.223 305.387 131.912 304.641C130.593 303.905 129.314 303.006 127.965 302.134C126.615 301.277 125.197 300.387 123.586 299.894C121.995 299.362 120.2 299.343 118.532 299.939C116.847 300.501 115.3 301.537 113.713 302.567C112.128 303.596 110.465 304.696 108.5 305.244C106.53 305.826 104.358 305.491 102.46 304.703C100.541 303.928 98.7668 302.843 96.8688 302.022C94.9858 301.17 92.9558 300.784 90.9708 301.083C88.9848 301.325 87.1018 302.028 85.2638 302.721C83.4258 303.419 81.6068 304.145 79.7178 304.543C77.8458 304.962 75.8698 304.98 74.0988 304.439C72.3278 303.948 70.7128 303.206 69.0568 302.894C68.2338 302.733 67.4048 302.692 66.6128 302.829C65.8208 302.964 65.0638 303.251 64.3338 303.571C62.8798 304.207 61.4658 305.011 59.8918 305.129C58.2998 305.264 56.8948 304.48 55.8088 303.666C54.6988 302.844 53.7278 301.967 52.6558 301.404C52.1218 301.125 51.5698 300.929 51.0148 300.839C50.4558 300.783 49.9068 300.792 49.3848 300.9C47.2898 301.357 45.7008 302.464 44.2868 303.056C42.8928 303.718 41.6538 303.926 40.8428 303.788C40.6418 303.749 40.4628 303.724 40.3138 303.685C40.1768 303.63 40.0578 303.581 39.9528 303.539C39.7598 303.46 39.6648 303.416 39.6688 303.408Z" fill="#FAFAFA"/>
<path d="M42.1409 131.468C42.1669 131.445 42.4339 131.828 43.1119 132.369C43.7879 132.904 44.9289 133.548 46.5479 133.872C48.1639 134.223 50.1919 134.217 52.5349 133.989C53.7079 133.895 54.9689 133.777 56.3179 133.795C57.6609 133.815 59.1129 133.985 60.5209 134.547C61.9289 135.097 63.2479 135.955 64.6599 136.718C65.3679 137.097 66.1039 137.451 66.8869 137.705C67.6699 137.953 68.5029 138.084 69.3569 138.113C71.0719 138.181 72.8429 137.837 74.6689 137.507C76.4909 137.179 78.4259 136.834 80.4319 137.071C82.4579 137.299 84.3049 138.331 86.0449 139.395C87.7909 140.45 89.5859 141.6 91.6479 141.885C92.6709 142.008 93.7219 141.931 94.7519 141.676C95.7789 141.404 96.7819 140.998 97.7759 140.544C99.7659 139.642 101.722 138.482 103.976 137.904C105.098 137.619 106.277 137.526 107.425 137.697C108.571 137.886 109.64 138.337 110.614 138.885C112.562 139.987 114.23 141.414 116.133 142.293C118.025 143.184 120.137 143.352 122.132 143.034C124.138 142.755 126.045 142.102 127.919 141.535C129.792 140.953 131.651 140.413 133.523 140.179C135.397 139.938 137.255 140.116 138.966 140.52C142.406 141.338 145.332 142.829 148.087 143.891C150.8 145.107 153.498 145.334 155.831 145.117C158.161 144.906 160.124 144.333 161.627 143.664C164.678 142.303 165.664 140.572 165.725 140.664C165.725 140.664 165.488 141.065 164.872 141.691C164.269 142.329 163.221 143.13 161.711 143.849C160.2 144.555 158.22 145.166 155.857 145.408C154.677 145.534 153.398 145.534 152.057 145.375C150.709 145.233 149.328 144.779 147.953 144.235C145.174 143.187 142.243 141.723 138.87 140.942C137.19 140.557 135.396 140.394 133.579 140.635C131.759 140.871 129.929 141.407 128.062 141.995C126.191 142.568 124.272 143.234 122.203 143.529C120.155 143.863 117.909 143.695 115.918 142.758C113.93 141.839 112.253 140.404 110.361 139.34C109.417 138.81 108.407 138.389 107.343 138.214C106.276 138.057 105.176 138.141 104.105 138.412C101.953 138.961 100.009 140.104 97.9939 141.018C96.9849 141.478 95.9539 141.896 94.8789 142.178C93.7999 142.445 92.6759 142.529 91.5799 142.394C89.3669 142.079 87.5249 140.874 85.7879 139.823C84.0509 138.754 82.2849 137.771 80.3739 137.55C76.5249 137.129 72.9119 138.723 69.3419 138.548C68.4549 138.513 67.5799 138.371 66.7599 138.105C65.9429 137.834 65.1869 137.463 64.4709 137.074C63.0419 136.289 61.7459 135.434 60.3869 134.892C57.6489 133.801 54.8819 134.145 52.5589 134.282C50.2129 134.484 48.1389 134.461 46.5069 134.073C44.8659 133.712 43.7119 133.023 43.0479 132.453C42.3779 131.873 42.1409 131.468 42.1409 131.468Z" fill="#FAFAFA"/>
<g opacity="0.3">
<path d="M117.142 142.972L131.265 152.739C126.78 163.868 130.93 179.316 134.822 191.959C136.336 196.877 141.344 202.002 141.1 207.141C140.856 212.281 145.162 221.023 140.183 222.324C136.881 223.186 133.296 222.062 130.55 220.035C127.804 218.008 125.777 215.167 123.982 212.264C114.063 196.221 109.435 165.539 117.142 142.972Z" fill="black"/>
</g>
<path d="M42.8209 294.898C42.8249 294.881 43.0099 294.902 43.3589 294.96C43.7639 295.034 44.2669 295.126 44.8789 295.238C46.2699 295.503 48.1579 295.863 50.4569 296.301C55.1679 297.185 61.6929 298.319 68.9349 299.331C76.1799 300.338 82.7669 301.032 87.5409 301.469C89.8719 301.676 91.7859 301.847 93.1959 301.972C93.8149 302.032 94.3239 302.081 94.7339 302.12C95.0849 302.16 95.2689 302.189 95.2679 302.207C95.2669 302.225 95.0809 302.23 94.7279 302.225C94.3159 302.211 93.8059 302.195 93.1839 302.174C91.8429 302.122 89.9049 302.009 87.5109 301.836C82.7249 301.492 76.1209 300.855 68.8639 299.846C61.6099 298.833 55.0849 297.64 50.3869 296.662C48.0379 296.174 46.1419 295.753 44.8379 295.436C44.2339 295.285 43.7379 295.162 43.3379 295.062C42.9949 294.972 42.8169 294.915 42.8209 294.898Z" fill="#263238"/>
<path d="M64.794 292.292C64.799 292.275 65.086 292.337 65.625 292.47C66.168 292.587 66.948 292.845 67.984 293.042C70.036 293.515 73.056 294.017 76.815 294.179C80.571 294.349 85.077 294.066 89.927 292.97C94.772 291.884 99.936 289.903 104.817 286.893C109.667 283.83 113.715 280.06 116.82 276.183C119.936 272.306 122.169 268.382 123.665 264.933C125.17 261.485 126.045 258.551 126.522 256.5C126.8 255.483 126.911 254.669 127.044 254.13C127.161 253.587 127.231 253.302 127.249 253.305C127.267 253.308 127.231 253.598 127.148 254.148C127.048 254.695 126.969 255.517 126.72 256.545C126.302 258.618 125.477 261.586 124.003 265.079C122.539 268.572 120.319 272.552 117.194 276.482C114.081 280.412 109.998 284.236 105.093 287.334C100.157 290.379 94.93 292.367 90.033 293.438C85.13 294.519 80.581 294.765 76.799 294.547C73.014 294.336 69.985 293.775 67.938 293.24C66.904 293.012 66.131 292.722 65.596 292.572C65.064 292.404 64.788 292.309 64.794 292.292Z" fill="#263238"/>
<path d="M73.6578 116.513C73.6758 116.514 73.6828 116.762 73.6788 117.234C73.6748 117.757 73.6698 118.443 73.6638 119.297C73.6878 121.077 73.6438 123.703 74.4238 126.789C74.8418 128.311 75.4668 129.964 76.5868 131.445C77.6648 132.952 79.2288 134.241 81.0608 135.242C82.8948 136.247 84.9988 136.974 87.2328 137.452C89.4648 137.945 91.8358 138.191 94.2598 138.129C99.1098 138.033 103.689 136.682 107.246 134.458C110.834 132.259 113.271 129.18 114.704 126.364C116.139 123.517 116.562 120.917 116.65 119.148C116.714 117.366 116.529 116.383 116.594 116.376C116.612 116.373 116.655 116.617 116.723 117.086C116.807 117.553 116.846 118.253 116.853 119.155C116.827 120.948 116.454 123.606 115.034 126.529C113.617 129.419 111.16 132.589 107.501 134.864C103.88 137.16 99.2078 138.552 94.2728 138.65C91.8058 138.712 89.3938 138.459 87.1248 137.95C84.8538 137.457 82.7098 136.705 80.8308 135.661C78.9558 134.622 77.3428 133.274 76.2398 131.698C75.0938 130.15 74.4728 128.439 74.0688 126.879C73.3198 123.717 73.4268 121.078 73.4638 119.293C73.4948 118.396 73.5408 117.7 73.5768 117.229C73.6108 116.759 73.6398 116.513 73.6578 116.513Z" fill="#263238"/>
<path d="M67.547 118.252C67.547 118.252 43.2129 119.174 37.4379 143.472C30.7489 171.615 34.785 202.642 43.195 218.18L43.59 190.501C43.864 171.293 48.4889 152.396 57.1149 135.232L67.547 118.252Z" fill="#455A64"/>
<path d="M38.9479 198.12C38.9299 198.121 38.9089 197.829 38.8859 197.273C38.8669 196.67 38.8409 195.859 38.8089 194.839C38.7709 193.782 38.7479 192.488 38.7949 190.986C38.8319 189.484 38.8219 187.771 38.9659 185.885C39.0229 184.94 39.0829 183.95 39.1449 182.921C39.2119 181.891 39.3449 180.824 39.4479 179.716C39.6329 177.498 39.9939 175.147 40.3409 172.669C41.1379 167.73 42.2529 162.335 43.8019 156.77C45.3899 151.214 47.2589 146.03 49.1609 141.402C50.1599 139.108 51.0809 136.915 52.0829 134.927C52.5739 133.929 53.0179 132.95 53.4989 132.036C53.9839 131.126 54.4499 130.251 54.8949 129.415C55.7589 127.731 56.6619 126.276 57.4149 124.977C58.1599 123.672 58.8559 122.581 59.4409 121.7C60.0009 120.848 60.4469 120.17 60.7779 119.666C61.0879 119.204 61.2589 118.967 61.2739 118.977C61.2889 118.987 61.1479 119.244 60.8659 119.723C60.5549 120.24 60.1379 120.934 59.6129 121.807C59.0559 122.704 58.3859 123.808 57.6669 125.124C56.9399 126.435 56.0609 127.899 55.2199 129.589C54.7849 130.428 54.3309 131.305 53.8579 132.218C53.3869 133.134 52.9529 134.114 52.4729 135.113C51.4909 137.103 50.5879 139.295 49.6049 141.586C47.7339 146.208 45.8859 151.376 44.3039 156.911C42.7609 162.455 41.6359 167.826 40.8159 172.744C40.4569 175.211 40.0819 177.552 39.8789 179.761C39.7669 180.864 39.6239 181.926 39.5469 182.953C39.4729 183.979 39.4019 184.964 39.3349 185.906C39.1679 187.786 39.1519 189.494 39.0879 190.992C39.0139 192.49 39.0069 193.781 39.0139 194.837C39.0049 195.856 38.9979 196.667 38.9929 197.269C38.9809 197.827 38.9659 198.119 38.9479 198.12Z" fill="#263238"/>
<path d="M50.079 124.407C50.095 124.416 49.994 124.64 49.787 125.059C49.552 125.521 49.245 126.126 48.861 126.879C48.029 128.443 46.909 130.752 45.599 133.633C44.971 135.086 44.241 136.66 43.588 138.403C43.254 139.271 42.88 140.158 42.546 141.091C42.219 142.027 41.882 142.99 41.538 143.977C40.22 147.946 38.977 152.38 38.018 157.112C36.138 166.595 35.751 175.376 35.767 181.703C35.785 184.87 35.85 187.434 35.94 189.204C35.97 190.048 35.994 190.726 36.013 191.244C36.024 191.711 36.021 191.957 36.003 191.958C35.985 191.959 35.953 191.716 35.908 191.251C35.865 190.734 35.808 190.057 35.738 189.215C35.586 187.447 35.465 184.88 35.399 181.706C35.289 175.365 35.618 166.541 37.508 157.009C38.471 152.254 39.735 147.801 41.085 143.822C41.438 142.833 41.783 141.869 42.119 140.931C42.462 139.997 42.846 139.109 43.19 138.241C43.863 136.498 44.616 134.927 45.267 133.479C46.624 130.608 47.797 128.32 48.685 126.783C49.104 126.048 49.44 125.459 49.697 125.008C49.932 124.605 50.063 124.398 50.079 124.407Z" fill="#263238"/>
<path d="M146.153 127.614C146.153 127.614 129.809 172.101 141.857 209.649L142.514 222.92C142.514 222.92 133.299 222.293 126.328 209.124C119.357 195.955 117.099 182.365 114.736 162.78C112.372 143.195 123.107 118.251 123.107 118.251C123.107 118.251 142.143 122.422 146.153 127.614Z" fill="#455A64"/>
<path d="M142.943 221.834C142.939 221.842 142.858 221.803 142.704 221.72C142.525 221.619 142.302 221.494 142.026 221.338C141.443 220.982 140.617 220.39 139.685 219.478C137.805 217.668 135.777 214.349 134.506 209.871C133.841 207.644 133.332 205.144 132.905 202.456C132.437 199.772 132.058 196.884 131.713 193.84C131.05 187.75 130.702 181.007 130.857 173.937C131.005 166.863 131.65 160.142 132.582 154.086C133.516 148.031 134.652 142.62 135.983 138.173C137.3 133.721 138.887 130.288 140.174 128.038C140.819 126.913 141.37 126.069 141.764 125.512C141.95 125.257 142.1 125.05 142.221 124.884C142.326 124.744 142.384 124.676 142.391 124.681C142.398 124.686 142.355 124.765 142.265 124.915C142.156 125.088 142.02 125.304 141.852 125.57C141.487 126.144 140.966 127.001 140.352 128.136C139.127 130.405 137.602 133.835 136.337 138.277C135.059 142.711 133.962 148.117 133.057 154.157C132.154 160.199 131.526 166.898 131.378 173.948C131.224 180.994 131.555 187.715 132.19 193.789C132.521 196.825 132.882 199.706 133.331 202.386C133.739 205.072 134.223 207.554 134.86 209.769C136.076 214.219 138.022 217.508 139.83 219.337C141.63 221.185 142.996 221.761 142.943 221.834Z" fill="#263238"/>
<path d="M142.333 221.383C142.33 221.391 142.239 221.36 142.064 221.291C141.863 221.207 141.609 221.101 141.292 220.969C140.636 220.64 139.664 220.142 138.544 219.299C136.281 217.643 133.559 214.537 131.102 210.189C128.732 205.809 126.012 200.497 123.943 194.224C121.812 187.985 120.1 180.899 119.219 173.337C118.329 165.773 118.354 158.483 118.957 151.918C119.505 145.337 120.842 139.521 122.118 134.71C122.832 132.321 123.424 130.144 124.156 128.301C124.844 126.444 125.383 124.826 125.986 123.567C126.54 122.322 126.976 121.341 127.29 120.636C127.434 120.326 127.549 120.077 127.641 119.88C127.723 119.711 127.769 119.626 127.777 119.63C127.785 119.634 127.755 119.726 127.69 119.902C127.611 120.105 127.511 120.36 127.387 120.679C127.095 121.392 126.69 122.384 126.175 123.643C125.602 124.911 125.092 126.536 124.433 128.396C123.729 130.242 123.164 132.42 122.475 134.806C121.25 139.611 119.956 145.409 119.437 151.961C118.863 158.498 118.853 165.75 119.739 173.276C120.615 180.8 122.304 187.852 124.4 194.068C126.433 200.319 129.107 205.624 131.425 210.006C133.828 214.35 136.471 217.45 138.671 219.138C139.76 219.996 140.706 220.517 141.342 220.875C141.648 221.026 141.893 221.146 142.088 221.242C142.252 221.327 142.336 221.375 142.333 221.383Z" fill="#263238"/>
<path d="M134.587 144.456L145.183 147.253L143.648 150.956L133.679 148.967L134.587 144.456Z" fill="#263238"/>
<path d="M134.823 148.009C134.764 147.95 135.349 147.261 136.318 146.225L136.493 146.038L136.637 146.263C137.046 146.903 137.473 147.572 137.921 148.274L137.58 148.185C137.96 147.969 138.351 147.746 138.754 147.517C139.169 147.286 139.571 147.063 139.964 146.844L140.189 146.719L140.309 146.939C140.71 147.677 141.091 148.378 141.457 149.051L141.184 148.974C142.425 148.346 143.229 147.987 143.269 148.059C143.308 148.131 142.575 148.618 141.38 149.329L141.212 149.429L141.106 149.252C140.712 148.595 140.302 147.911 139.87 147.191L140.214 147.286C139.823 147.508 139.423 147.736 139.01 147.971C138.605 148.196 138.212 148.415 137.829 148.628L137.61 148.75L137.487 148.539C137.068 147.819 136.669 147.133 136.287 146.477L136.606 146.515C135.571 147.483 134.881 148.068 134.823 148.009Z" fill="#E8505B"/>
<path d="M47.752 208.009L36.214 186.721H1.112L0 188.833L29.713 238.235L63.352 239.858L47.752 208.009Z" fill="#455A64"/>
<path d="M181.593 219.753V256.959C181.593 263.75 178.541 270.182 173.279 274.476C166.869 279.708 158.112 281.021 150.449 277.899L68.53 241.593L76.554 214.268L142.458 235.991L142.382 219.052L181.593 219.753Z" fill="#FFBE9D"/>
<path d="M46.64 210.121L35.101 188.833H0L28.601 240.347L62.239 241.97L46.64 210.121Z" fill="#263238"/>
<path d="M79.775 217.197L74.222 210.307C70.566 205.77 65.052 203.133 59.226 203.133H54.377L51.068 206.856C51.068 206.856 27.329 207.89 26.454 210.818L26.433 211.763L26.421 212.316L46.725 213.681C46.725 213.681 29.452 213.627 28.419 213.665C27.282 213.707 23.599 213.376 23.674 215.402C23.736 217.068 25.707 218.382 28.693 218.818C29.921 218.998 44.882 220.298 44.882 220.298C44.882 220.298 29.173 220.148 28.413 220.144C26.567 220.135 26.801 223.095 27.898 223.466C28.765 223.759 49.858 229.914 49.858 229.914C49.858 229.914 46.311 232.293 43.416 232.086C40.521 231.879 35.557 228.156 34.523 229.914C33.489 231.672 33.696 232.706 34.316 233.12C34.936 233.534 41.761 237.049 44.036 237.67C46.311 238.29 64.883 241.23 64.883 241.23L71.588 242.31L79.775 217.197Z" fill="#FFBE9D"/>
<path d="M4.90506 197.135C4.90506 197.135 1.23305 198.415 3.10205 203.132C5.83705 210.036 10.5511 214.925 10.5511 214.925C10.5511 214.925 9.90106 217.363 12.0131 219.15C12.0131 219.15 9.41306 219.8 11.0381 224.188C11.0381 224.188 9.25007 228.738 14.1261 230.688C14.1261 230.688 12.8261 234.426 17.5391 236.213C22.2521 238.001 26.8021 234.91 26.8021 234.91L4.90506 197.135Z" fill="#FFBE9D"/>
<path d="M12.352 214.567C15.688 215.467 19.354 216.185 22.439 217.356C23.454 217.741 24.46 217.762 25.134 218.614C25.807 219.466 25.963 220.823 25.193 221.589C24.515 222.264 23.429 222.251 22.479 222.136C18.919 221.705 15.51 220.483 12.137 219.27" fill="#FFBE9D"/>
<path d="M13.683 220.135C17.019 221.035 20.685 221.753 23.77 222.925C24.785 223.31 25.792 223.33 26.465 224.183C27.138 225.035 27.294 226.392 26.524 227.158C25.846 227.833 24.76 227.82 23.81 227.705C20.251 227.274 16.841 226.053 13.468 224.839" fill="#FFBE9D"/>
<path d="M15.58 225.864C18.916 226.764 22.582 227.482 25.667 228.654C26.682 229.039 27.688 229.059 28.362 229.912C29.035 230.764 29.191 232.121 28.421 232.887C27.743 233.562 26.657 233.549 25.707 233.434C22.148 233.003 18.739 231.782 15.365 230.568" fill="#FFBE9D"/>
<path d="M12.3361 219.386C12.3911 219.246 14.7461 220.07 17.7021 220.891C20.6571 221.721 23.0971 222.235 23.0721 222.383C23.0521 222.518 20.5481 222.23 17.5621 221.392C14.5751 220.563 12.2831 219.512 12.3361 219.386Z" fill="#EB996E"/>
<path d="M11.716 224.3C11.768 224.16 14.465 225.054 17.821 226.034C21.177 227.022 23.928 227.726 23.897 227.872C23.869 228.007 21.052 227.528 17.675 226.534C14.297 225.547 11.666 224.429 11.716 224.3Z" fill="#EB996E"/>
<path d="M13.9061 230.618C13.9411 230.479 16.5081 231 19.6391 231.782C22.7711 232.565 25.2811 233.312 25.2461 233.451C25.2111 233.59 22.6451 233.069 19.5131 232.287C16.3811 231.505 13.8711 230.757 13.9061 230.618Z" fill="#EB996E"/>
<path d="M9.57798 213.886C9.63098 213.743 12.586 214.744 16.303 215.7C20.019 216.667 23.088 217.224 23.065 217.375C23.054 217.443 22.271 217.392 21.018 217.206C19.765 217.02 18.045 216.688 16.173 216.205C14.302 215.72 12.636 215.176 11.451 214.731C10.264 214.286 9.55398 213.951 9.57798 213.886Z" fill="#EB996E"/>
<path d="M42.9871 207.141C42.9861 206.997 46.716 206.861 51.317 206.837C55.919 206.813 59.6491 206.91 59.6501 207.053C59.6511 207.197 55.9221 207.333 51.3201 207.357C46.7191 207.382 42.9881 207.285 42.9871 207.141Z" fill="#EB996E"/>
<path d="M17.8189 197.771C18.5789 198.38 19.6879 198.257 20.2969 197.498C20.9059 196.738 20.7829 195.629 20.0239 195.02C19.2639 194.411 18.1549 194.533 17.5459 195.293C16.9369 196.052 17.0599 197.162 17.8189 197.771Z" fill="#EBEBEB"/>
<path d="M138.158 235.025C138.166 234.99 138.452 235.024 138.968 235.115C139.484 235.2 140.221 235.383 141.115 235.661C142.903 236.212 145.306 237.257 147.667 238.889C150.024 240.529 151.844 242.414 152.986 243.896C153.56 244.636 153.989 245.262 154.249 245.716C154.515 246.166 154.647 246.423 154.617 246.443C154.543 246.491 153.905 245.532 152.701 244.131C151.502 242.729 149.68 240.926 147.37 239.318C145.055 237.718 142.729 236.642 140.996 236.01C139.261 235.374 138.138 235.112 138.158 235.025Z" fill="#EB996E"/>
<path d="M93.4661 136.456C82.6591 135.593 74.493 126.295 75.032 115.467C75.41 107.869 75.8021 101.016 75.8021 101.016C75.8021 101.016 59.511 98.4826 59.31 82.1946C59.109 65.9066 61.933 28.5046 61.933 28.5046C80.788 20.4016 102.552 23.1366 118.815 35.6546L121.229 37.5126L115.059 117.998C114.21 129.066 104.532 137.339 93.4661 136.456Z" fill="#FFBE9D"/>
<path d="M75.776 100.781C75.776 100.781 86.07 101.618 97.011 94.7456C97.011 94.7456 91.992 106.468 75.738 105.001L75.776 100.781Z" fill="#EB996E"/>
<path d="M65.953 54.0323C65.91 55.2603 66.914 56.3103 68.196 56.3793C69.476 56.4483 70.55 55.5103 70.594 54.2823C70.637 53.0543 69.633 52.0023 68.354 51.9343C67.072 51.8643 65.997 52.8043 65.953 54.0323Z" fill="#263238"/>
<path d="M65.016 51.4163C65.304 51.7193 67.0671 50.4153 69.5701 50.4223C72.0701 50.3933 73.907 51.6803 74.179 51.3743C74.313 51.2383 74.019 50.6912 73.219 50.1082C72.432 49.5282 71.089 48.9643 69.529 48.9713C67.97 48.9803 66.6591 49.5533 65.9051 50.1413C65.1341 50.7323 64.874 51.2813 65.016 51.4163Z" fill="#263238"/>
<path d="M89.557 54.6191C89.514 55.8471 90.518 56.8971 91.8 56.9661C93.08 57.0351 94.154 56.0971 94.198 54.8691C94.241 53.6411 93.237 52.5901 91.957 52.5211C90.675 52.4521 89.6 53.3911 89.557 54.6191Z" fill="#263238"/>
<path d="M89.62 51.883C89.909 52.186 91.673 50.883 94.175 50.889C96.675 50.86 98.512 52.148 98.784 51.841C98.917 51.706 98.626 51.158 97.823 50.576C97.036 49.996 95.693 49.432 94.134 49.438C92.575 49.447 91.263 50.021 90.509 50.608C89.741 51.199 89.479 51.748 89.62 51.883Z" fill="#263238"/>
<path d="M80.5361 70.4462C80.5481 70.3042 78.9921 70.0352 76.4701 69.7132C75.8311 69.6472 75.2261 69.5202 75.1181 69.0842C74.9671 68.6222 75.2351 67.9332 75.5451 67.1902C76.1461 65.6432 76.7751 64.0222 77.4351 62.3232C80.0601 55.3932 81.9601 49.6952 81.6801 49.5922C81.4001 49.4892 79.0451 55.0222 76.4201 61.9512C75.7881 63.6602 75.1841 65.2892 74.6091 66.8472C74.3671 67.5732 73.9511 68.3972 74.2771 69.3552C74.4491 69.8332 74.9181 70.1792 75.3281 70.2902C75.7381 70.4152 76.0971 70.4222 76.4131 70.4412C78.9521 70.5782 80.5261 70.5892 80.5361 70.4462Z" fill="#263238"/>
<path d="M87.9021 72.178C87.4951 72.154 87.4901 74.871 85.1641 76.8C82.8431 78.735 79.9461 78.43 79.9251 78.809C79.8871 78.979 80.5701 79.337 81.7921 79.37C82.9911 79.411 84.7421 79.026 86.1651 77.846C87.5841 76.663 88.1941 75.086 88.2861 73.971C88.3911 72.836 88.0881 72.162 87.9021 72.178Z" fill="#263238"/>
<path d="M88.974 42.0744C89.221 42.7554 91.72 42.4324 94.657 42.7864C97.601 43.0814 99.97 43.9414 100.359 43.3304C100.533 43.0384 100.12 42.3984 99.162 41.7394C98.213 41.0814 96.698 40.4564 94.936 40.2594C93.173 40.0674 91.559 40.3464 90.489 40.7814C89.41 41.2164 88.868 41.7514 88.974 42.0744Z" fill="#263238"/>
<path d="M65.936 44.1725C66.376 44.7405 68.1 44.1505 70.174 44.1235C72.247 44.0225 74.003 44.5055 74.407 43.9105C74.584 43.6215 74.308 43.0525 73.54 42.5145C72.784 41.9785 71.52 41.5395 70.095 41.5825C68.671 41.6275 67.436 42.1425 66.714 42.7255C65.982 43.3095 65.742 43.8955 65.936 44.1725Z" fill="#263238"/>
<path d="M119.222 54.3835C119.499 54.2635 130.414 51.0735 130.058 62.2095C129.702 73.3445 118.596 70.6915 118.586 70.3715C118.577 70.0505 119.222 54.3835 119.222 54.3835Z" fill="#FFBE9D"/>
<path d="M122.123 66.2606C122.173 66.2266 122.313 66.4026 122.636 66.5636C122.951 66.7196 123.498 66.8386 124.085 66.6396C125.275 66.2456 126.326 64.4096 126.444 62.4046C126.505 61.3916 126.323 60.4196 125.99 59.6096C125.676 58.7836 125.167 58.1986 124.579 58.0736C123.994 57.9186 123.563 58.2596 123.417 58.5686C123.258 58.8756 123.321 59.0996 123.262 59.1166C123.23 59.1436 123.029 58.9226 123.133 58.4656C123.186 58.2466 123.325 57.9876 123.593 57.7816C123.867 57.5726 124.264 57.4746 124.675 57.5326C125.532 57.6196 126.279 58.4346 126.646 59.3236C127.06 60.2186 127.288 61.3116 127.219 62.4486C127.076 64.6906 125.86 66.7536 124.236 67.1676C123.446 67.3466 122.8 67.0896 122.471 66.8156C122.134 66.5306 122.084 66.2796 122.123 66.2606Z" fill="#EB996E"/>
<path d="M55.698 14.4316C58.063 9.75955 62.6689 6.28655 67.8119 5.29755C72.955 4.30855 78.5199 5.82554 82.4499 9.28754C84.9129 4.38354 89.907 0.83854 95.35 0.13254C100.792 -0.57346 106.526 1.57854 110.159 5.69254C113.282 9.22854 114.898 14.0365 118.557 17.0145C121.723 19.5915 126.016 20.4485 129.2 23.0035C132.705 25.8165 134.452 30.6565 133.55 35.0595C132.649 39.4625 129.14 43.2265 124.812 44.4355C128.305 50.7355 125.03 59.7725 118.313 62.3735L116.689 61.7005C110.527 54.9355 109.119 44.2595 113.317 36.1285C113.117 36.1385 112.929 36.1075 112.733 36.1025C110.588 37.2725 108.121 37.8595 105.68 37.7165C101.786 37.4885 98.04 35.4115 95.784 32.2285C91.337 35.4365 84.965 35.7045 80.264 32.8815C79.523 32.4365 78.784 31.9085 77.925 31.8175C76.901 31.7085 75.933 32.2375 75.009 32.6915C72.565 33.8905 69.819 34.6745 67.125 34.2835C64.612 33.9185 62.198 32.3565 61.205 30.0465C61.143 30.0375 61.082 30.0365 61.02 30.0245C57.881 29.4575 55.363 26.7786 54.499 23.7076C53.634 20.6346 54.257 17.2776 55.698 14.4316Z" fill="#263238"/>
<path d="M63.3711 256.917L71.3725 241.765L212.065 241.498L220.058 254.537L201.052 274.036L101.132 282.811L63.3711 256.917Z" fill="#E0BD9D"/>
<path d="M74.7263 265.862C75.0227 265.111 82.0161 254.537 82.0161 254.537L94.2517 262.155C94.2517 262.155 97.4763 273.972 97.0817 274.036C96.6871 274.101 74.7263 265.862 74.7263 265.862Z" fill="#C4A58C"/>
<path d="M118.622 289.664L94.8283 272.401L74.7261 250.7L85.9273 236.456L129.823 275.42L118.622 289.664Z" fill="#4B64A3"/>
<path d="M88.8151 252.378C89.6895 253.004 90.5189 253.705 91.2578 254.503C92.7461 256.113 93.8527 258.118 94.4466 260.284C95.2418 260.454 96.0575 260.514 96.8671 260.464C96.1354 261.685 95.2988 262.835 94.3712 263.895C94.0464 263.114 93.792 262.3 93.6129 261.468C92.4016 261.827 91.0862 261.608 89.9293 261.084C88.7726 260.56 87.753 259.748 86.7881 258.891C85.6191 257.854 84.4967 256.722 83.7013 255.342C83.0843 254.272 81.7158 251.082 83.4478 250.516C85.1373 249.964 87.4898 251.431 88.8151 252.378Z" fill="#7294C4"/>
<path d="M102.334 261.53C102.902 262.074 103.431 262.668 103.885 263.322C104.799 264.641 105.401 266.202 105.619 267.824C106.174 268.032 106.754 268.164 107.341 268.216C106.697 269.014 105.985 269.749 105.217 270.41C105.058 269.813 104.954 269.201 104.906 268.583C104.001 268.709 103.076 268.409 102.296 267.907C101.515 267.404 100.861 266.709 100.25 265.989C99.51 265.116 98.8123 264.181 98.3739 263.102C98.0337 262.266 97.3579 259.825 98.6571 259.607C99.9244 259.394 101.473 260.705 102.334 261.53Z" fill="#7294C4"/>
<path d="M110.404 272.732C111.133 272.981 111.844 273.291 112.511 273.69C113.854 274.493 115.006 275.655 115.831 277.038C116.418 276.986 116.998 276.854 117.553 276.645C117.274 277.653 116.909 278.634 116.464 279.572C116.089 279.097 115.757 278.584 115.474 278.042C114.698 278.552 113.739 278.681 112.833 278.564C111.927 278.446 111.062 278.098 110.227 277.707C109.215 277.234 108.217 276.685 107.401 275.893C106.768 275.279 105.208 273.348 106.309 272.583C107.382 271.836 109.301 272.355 110.404 272.732Z" fill="#7294C4"/>
<path opacity="0.42" d="M128.838 276.685L118.64 267.633L108.333 280.739L118.53 289.791L128.838 276.685Z" fill="#47332F"/>
<path d="M77.447 247.263C77.447 247.263 75.5605 246.278 74.0551 247.973C72.5497 249.668 73.7813 256.824 93.3015 274.15C112.822 291.477 119.059 291.227 120.223 289.747C121.666 287.912 120.997 286.535 120.997 286.535C120.997 286.535 119.357 290.872 96.3387 270.44C72.8087 249.554 77.447 247.263 77.447 247.263Z" fill="#DDC55F"/>
<path d="M88.2123 234.278C88.2123 234.278 86.0275 231.925 84.3065 234.118C82.9024 235.906 85.0737 242.756 104.593 260.082C126.798 279.792 130.852 278.256 132.015 276.776C133.403 275.012 131.47 273.365 131.47 273.365C131.47 273.365 129.631 278.484 107.104 257.454C84.6671 236.509 88.2123 234.278 88.2123 234.278Z" fill="#DDC55F"/>
<path d="M86.5414 233.415C83.5034 235.954 94.7587 247.426 107.662 258.879C121.377 271.054 131.277 277.708 132.146 274.585C133.346 270.276 89.0693 231.302 86.5414 233.415Z" fill="#C9AE5A"/>
<path d="M88.6936 235.329C86.6155 236.764 97.0752 246.976 108.841 257.421C121.349 268.523 130.094 274.949 130.372 272.756C130.755 269.73 90.4226 234.135 88.6936 235.329Z" fill="#998347"/>
<path d="M108.362 252.399C106.662 249.482 103.824 247.496 101.123 245.564C99.1067 244.121 97.1096 242.647 95.1327 241.142C94.7003 240.813 93.156 239.423 92.6205 239.776C91.9557 240.215 93.0046 241.338 93.3267 241.658C94.9683 243.288 96.7204 244.787 98.4794 246.27C99.9951 247.548 101.518 248.816 103.049 250.074C104.533 251.294 106.038 252.513 107.712 253.392C107.931 253.507 108.193 253.616 108.396 253.505C108.732 253.318 108.575 252.764 108.362 252.399ZM106.066 251.088C106.012 251.112 105.946 251.096 105.886 251.077C104.815 250.745 101.853 248.271 101.372 247.704C101.261 247.573 101.158 247.423 101.136 247.256C101.113 247.088 101.196 246.904 101.351 246.874C101.431 246.859 101.516 246.886 101.597 246.914C102.919 247.37 103.93 248.277 104.998 249.202C105.502 249.637 106.044 250.139 106.152 250.794C106.171 250.907 106.162 251.045 106.066 251.088Z" fill="#C9AE5A"/>
<path opacity="0.48" d="M75.36 249.738C75.1077 250.168 75.2734 250.817 75.5174 251.388C76.5471 253.8 78.0856 256.019 79.7464 258.187C82.8605 262.252 86.15 265.74 89.8142 268.888C90.1361 269.165 90.5112 269.448 90.872 269.448C91.3818 269.447 91.5171 268.744 90.3115 267.619C88.69 266.107 83.1075 260.584 80.7031 257.23C76.7875 251.767 76.3641 248.025 75.36 249.738Z" fill="white"/>
<path opacity="0.48" d="M84.6618 236.227C84.6164 236.583 84.8248 236.988 85.0313 237.357C89.4549 245.258 96.3737 251.915 103.547 257.697C103.864 257.953 104.284 258.228 104.556 258.073C104.965 257.84 104.492 257.09 104.05 256.663C100.069 252.808 96.8955 250.008 93.107 245.96C91.5906 244.339 89.3676 241.539 88.0322 239.776C87.3458 238.869 86.7143 237.937 86.1435 236.972C85.8679 236.506 84.8238 234.967 84.6618 236.227Z" fill="white"/>
<path opacity="0.2" d="M83.6534 242.831C82.9365 244.156 82.0917 245.403 81.1357 246.545C80.7129 247.05 80.2633 247.544 79.9709 248.144C79.6786 248.745 79.564 249.487 79.8421 250.095C80.1199 250.703 80.8719 251.076 81.4331 250.757C81.6617 250.627 81.8315 250.408 81.9955 250.195C83.1913 248.635 84.3869 247.074 85.5827 245.514C86.269 244.619 86.8982 243.05 86.0813 241.989C85.2091 240.856 84.1491 241.916 83.6534 242.831Z" fill="white"/>
<path d="M77.5242 209.527C76.1445 213.983 78.3341 235.353 107.656 255.328C138.048 276.032 165.599 286.415 175.834 287.485C185.849 288.533 201.919 272.821 185.847 252.96C175.281 239.903 146.679 213.99 120.123 204.975C92.9221 195.742 80.7365 199.152 77.5242 209.527Z" fill="#FFA227"/>
<path d="M178.213 286.268C170.442 285.732 163.721 281.856 156.418 279.216C148.443 276.331 141.197 272.087 133.558 268.662C125.569 265.079 119.297 258.906 111.897 254.358C108.288 252.14 104.292 250.831 101.066 247.821C97.6749 244.658 94.7194 241.227 91.501 237.911C88.2442 234.555 86.2516 231.565 83.9909 227.776C82.9192 225.98 81.9466 224.223 80.9432 222.305C80.2395 220.96 79.2962 220.219 78.3306 219.447C80.8414 228.582 88.386 242.331 107.683 255.477C138.076 276.181 165.627 286.564 175.861 287.635C177.974 287.856 180.357 287.331 182.651 286.178C180.898 286.182 179.112 286.33 178.213 286.268Z" fill="#D88921"/>
<path opacity="0.6" d="M185.664 253.159C175.098 240.102 146.497 214.189 119.94 205.174C100.11 198.443 88.2621 198.432 82.0515 202.94C81.9426 203.964 82.0776 205.195 82.5353 206.729C85.1406 215.464 90.9769 226.18 98.4634 229.766C106.027 233.388 110.502 236.773 115.307 244.302C118.404 249.157 128.04 249.527 131.95 253.675C138.011 260.106 146.081 264.271 154.726 264.738C161.801 265.121 165.477 265.277 171.458 269.83C175.59 272.975 178.795 274.955 183.097 277.967C185.242 279.469 187.285 280.233 189.251 280.239C193.603 273.928 194.585 264.182 185.664 253.159Z" fill="#F5892F"/>
<path d="M115.504 213.893C120.777 225.189 119.182 243.07 119.182 243.07C119.182 243.07 127.371 230.562 126.422 220.833C125.934 215.824 123.736 209.238 122.445 205.698C121.763 205.445 121.081 205.202 120.4 204.971C115.86 203.43 111.74 202.243 108.008 201.38C110.195 204.422 113.22 209 115.504 213.893Z" fill="#E8B964"/>
<path d="M125.077 220.605C125.757 227.584 121.736 235.993 119.408 240.189C119.341 242.192 119.232 243.414 119.232 243.414C119.232 243.414 127.421 230.906 126.473 221.177C125.985 216.168 123.787 209.582 122.496 206.041C122.04 205.872 121.584 205.71 121.129 205.551C122.424 209.11 124.592 215.633 125.077 220.605Z" fill="#C17829"/>
<path d="M135.137 222.92C136.535 230.297 133.81 251.868 133.81 251.868C133.81 251.868 143.56 242.144 144.296 233.868C144.728 229.016 143.791 221.543 142.942 216.19C138.585 213.473 134.123 210.99 129.652 208.878C131.496 211.925 133.994 216.894 135.137 222.92Z" fill="#E8B964"/>
<path d="M144.291 233.875C144.722 229.022 143.785 221.549 142.937 216.197C142.444 215.89 141.95 215.587 141.455 215.286C142.287 220.606 143.168 227.833 142.747 232.567C142.22 238.486 137.085 245.144 134.201 248.458C133.971 250.555 133.805 251.875 133.805 251.875C133.805 251.875 143.554 242.151 144.291 233.875Z" fill="#C17829"/>
<path d="M154.379 236.736C156.316 247.781 152.709 260.08 152.709 260.08C152.709 260.08 162.192 251.245 163.195 242.08C163.608 238.314 163.406 234.257 163.026 230.784C159.323 227.737 155.376 224.699 151.272 221.801C152.252 226.341 153.938 234.216 154.379 236.736Z" fill="#E8B964"/>
<path d="M163.21 242.054C163.622 238.288 163.421 234.231 163.041 230.758C162.697 230.476 162.349 230.193 162.002 229.911C162.318 233.171 162.454 236.856 162.077 240.298C161.373 246.729 156.495 252.997 153.647 256.165C153.16 258.567 152.724 260.054 152.724 260.054C152.724 260.054 162.206 251.219 163.21 242.054Z" fill="#C17829"/>
<path d="M173.669 250.6C173.193 257.397 169.264 265.862 169.264 265.862C169.264 265.862 177.811 260.14 179.559 255.246C180.292 253.194 180.669 250.137 180.862 247.36C178.429 244.738 175.558 241.856 172.344 238.854C173.096 242.295 173.902 247.277 173.669 250.6Z" fill="#E8B964"/>
<path d="M179.554 255.247C180.286 253.196 180.664 250.139 180.857 247.361C180.612 247.098 180.362 246.831 180.109 246.562C179.905 249.196 179.531 252.004 178.843 253.928C177.608 257.387 172.979 261.258 170.368 263.233C169.731 264.846 169.259 265.864 169.259 265.864C169.259 265.864 177.805 260.142 179.554 255.247Z" fill="#C17829"/>
<path opacity="0.5" d="M110.642 213.501C109.869 211.466 109.896 209.517 108.628 207.911C107.671 206.699 106.128 203.873 104.868 203.238C101.042 200.828 87.8703 199.635 87.9515 206.119C87.9835 208.661 93.8011 213.157 96.1024 213.982C98.3537 214.79 100.498 215.288 102.428 216.66C104.009 217.783 108.118 221.981 110.174 221.176C112.155 220.401 111.978 217.019 110.642 213.501Z" fill="#F7BF31"/>
<path opacity="0.5" d="M133.081 224.735C132.927 221.87 131.583 219.39 130.68 216.766C129.892 214.477 130.389 211.216 128.47 209.616L127.633 209.332C126.696 209.191 125.282 208.598 124.98 210.071C124.74 211.242 126.097 212.561 126.667 213.375C128.128 215.459 128.854 218.069 128.902 220.707C128.943 222.984 128.235 225.932 129.514 228.013C131.269 230.867 133.179 226.54 133.081 224.735Z" fill="#F7BF31"/>
<path opacity="0.5" d="M151.996 237.249C152.529 234.337 150.684 230.447 150.217 227.538C149.932 225.762 150.414 219.893 147.859 219.987L147.296 219.404C146.179 219.14 145.176 218.308 144.655 219.734C144.23 220.896 145.035 222.179 145.513 223.14C146.647 225.419 146.856 227.886 146.868 230.43C146.878 232.563 145.861 236.217 147.141 238.109C148.462 240.061 151.543 239.723 151.996 237.249Z" fill="#F7BF31"/>
<path opacity="0.5" d="M171.282 248.728C171.273 246.474 170.715 244.45 170.583 242.22C170.439 239.784 169.601 237.55 168.332 235.952L167.68 235.665C165.536 233.441 163.62 234.84 165.039 237.746C166.521 240.783 166.524 242.788 166.021 246.188C165.694 248.405 165.335 251.886 167.907 252.564C170.785 253.321 171.292 251.206 171.282 248.728Z" fill="#F7BF31"/>
<path opacity="0.5" d="M190.493 263.234C188.948 259.352 186.993 255.483 184.182 252.569L183.896 251.884C182.897 250.295 182.14 251.859 182.129 253.017C182.115 254.35 182.408 255.291 181.914 256.634C181.437 257.927 180.671 258.588 181.215 259.986C181.592 260.954 182.596 261.943 183.374 262.617C184.966 263.996 186.94 265.098 188.604 266.277C191.134 268.072 191.386 265.48 190.493 263.234Z" fill="#F7BF31"/>
<path d="M113.178 205.141C114.088 205.727 114.844 206.505 115.602 207.29C116.042 207.745 116.706 207.022 116.267 206.567C115.447 205.718 114.621 204.889 113.637 204.256C113.112 203.919 112.654 204.804 113.178 205.141Z" fill="#D3A55E"/>
<path d="M118.588 207.832C118.902 208.5 119.174 209.28 119.2 210.034C119.223 210.685 120.174 210.674 120.151 210.022C120.119 209.087 119.799 208.151 119.41 207.322C119.135 206.737 118.316 207.253 118.588 207.832Z" fill="#D3A55E"/>
<path d="M115.905 209.353C116.357 209.835 116.692 210.385 116.958 211.002C117.214 211.596 118.032 211.078 117.779 210.492C117.479 209.796 117.078 209.172 116.568 208.63C116.136 208.168 115.472 208.892 115.905 209.353Z" fill="#D3A55E"/>
<path d="M117.139 214.619C117.362 215.529 117.565 216.44 117.958 217.288C118.23 217.874 119.049 217.358 118.78 216.778C118.425 216.013 118.257 215.171 118.057 214.35C117.902 213.718 116.985 213.989 117.139 214.619Z" fill="#D3A55E"/>
<path d="M120.368 213.493C120.665 214.245 120.763 215.061 120.952 215.847C121.103 216.481 122.019 216.209 121.869 215.579C121.68 214.793 121.583 213.977 121.285 213.225C121.185 212.971 120.974 212.792 120.7 212.872C120.475 212.938 120.267 213.239 120.368 213.493Z" fill="#D3A55E"/>
<path d="M120.656 218.229C120.227 219.198 119.965 220.316 120.276 221.367C120.459 221.989 121.377 221.72 121.193 221.099C120.957 220.301 121.163 219.453 121.489 218.717C121.748 218.131 120.918 217.638 120.656 218.229Z" fill="#D3A55E"/>
<path d="M123.632 220.542C123.132 221.087 122.661 221.634 122.418 222.362C122.212 222.975 123.137 223.215 123.341 222.606C123.522 222.065 123.945 221.648 124.313 221.247C124.74 220.781 124.06 220.075 123.632 220.542Z" fill="#D3A55E"/>
<path d="M120.057 226.389C120.268 227.239 120.502 228.072 120.873 228.861C121.148 229.445 121.967 228.93 121.695 228.351C121.361 227.642 121.163 226.885 120.974 226.12C120.817 225.489 119.901 225.76 120.057 226.389Z" fill="#D3A55E"/>
<path d="M122.119 228.467C122.015 228.824 121.958 229.195 121.854 229.553C121.778 229.816 121.96 230.102 122.201 230.165C122.463 230.234 122.7 230.06 122.777 229.797C122.881 229.439 122.938 229.069 123.042 228.711C123.119 228.448 122.936 228.162 122.696 228.099C122.434 228.03 122.196 228.204 122.119 228.467Z" fill="#D3A55E"/>
<path d="M120.688 232.816C120.601 233.277 120.414 233.674 120.194 234.079C119.887 234.642 120.72 235.131 121.027 234.567C121.285 234.092 121.509 233.6 121.612 233.06C121.732 232.424 120.81 232.175 120.688 232.816Z" fill="#D3A55E"/>
<path d="M132.708 212.574C133.223 213.121 133.611 213.735 133.949 214.418C134.235 214.997 135.054 214.482 134.77 213.908C134.394 213.148 133.945 212.459 133.372 211.851C132.938 211.39 132.274 212.114 132.708 212.574Z" fill="#D3A55E"/>
<path d="M136.991 214.485C137.492 215.005 138.009 215.521 138.415 216.13C138.767 216.658 139.591 216.151 139.236 215.62C138.779 214.934 138.219 214.347 137.655 213.762C137.216 213.307 136.552 214.03 136.991 214.485Z" fill="#D3A55E"/>
<path d="M135.605 217.424C135.79 218.17 135.978 218.918 136.095 219.681C136.194 220.325 137.109 220.048 137.012 219.412C136.895 218.649 136.707 217.902 136.522 217.155C136.365 216.523 135.449 216.794 135.605 217.424Z" fill="#D3A55E"/>
<path d="M139.37 218.57C138.955 219.221 138.658 219.927 138.376 220.65C138.144 221.244 138.974 221.741 139.209 221.138C139.491 220.414 139.789 219.709 140.203 219.058C140.547 218.519 139.712 218.034 139.37 218.57Z" fill="#D3A55E"/>
<path d="M137.17 225.738C137.268 226.587 137.37 227.437 137.385 228.294C137.397 228.945 138.348 228.933 138.336 228.281C138.321 227.424 138.22 226.574 138.121 225.725C138.046 225.085 137.094 225.091 137.17 225.738Z" fill="#D3A55E"/>
<path d="M141.12 229.553C141.129 229.58 141.136 229.607 141.141 229.635C141.173 229.77 141.136 229.541 141.146 229.691C141.153 229.796 141.148 229.901 141.143 230.006C141.135 230.206 141.117 230.406 141.117 230.606C141.118 230.881 141.342 231.108 141.599 231.105C141.86 231.102 142.069 230.869 142.068 230.594C142.067 230.161 142.161 229.708 142.037 229.285C141.961 229.022 141.708 228.858 141.453 228.932C141.208 229.003 141.043 229.291 141.12 229.553Z" fill="#D3A55E"/>
<path d="M139.654 234.805C139.291 235.417 139.077 236.09 138.983 236.805C138.899 237.442 139.821 237.695 139.906 237.049C139.99 236.411 140.163 235.84 140.487 235.292C140.814 234.741 139.98 234.255 139.654 234.805Z" fill="#D3A55E"/>
<path d="M137.283 235.38C137.211 236.2 137.21 237.02 137.22 237.842C137.227 238.494 138.178 238.481 138.171 237.829C138.161 237.007 138.162 236.187 138.234 235.368C138.291 234.719 137.34 234.738 137.283 235.38Z" fill="#D3A55E"/>
<path d="M153.255 225.675C153.657 226.299 154.062 226.919 154.481 227.529C154.84 228.05 155.663 227.544 155.302 227.019C154.883 226.409 154.478 225.789 154.076 225.165C153.731 224.63 152.909 225.138 153.255 225.675Z" fill="#D3A55E"/>
<path d="M160.036 231.27C160.055 231.331 160.072 231.391 160.086 231.454C160.094 231.486 160.106 231.59 160.087 231.438C160.091 231.466 160.092 231.493 160.093 231.521C160.094 231.548 160.093 231.576 160.092 231.603C160.087 231.706 160.109 231.482 160.093 231.587C160.082 231.66 160.063 231.731 160.042 231.801C159.965 232.064 160.148 232.35 160.389 232.413C160.651 232.482 160.888 232.308 160.965 232.045C161.067 231.698 161.063 231.346 160.953 231.001C160.87 230.741 160.628 230.573 160.368 230.649C160.129 230.718 159.953 231.01 160.036 231.27Z" fill="#D3A55E"/>
<path d="M157.616 230.258C157.429 230.88 157.256 231.504 157.252 232.163C157.249 232.815 158.2 232.802 158.203 232.15C158.206 231.582 158.378 231.039 158.539 230.502C158.725 229.882 157.802 229.639 157.616 230.258Z" fill="#D3A55E"/>
<path d="M155.52 233.2C155.618 233.69 155.717 234.181 155.815 234.672C155.943 235.311 156.859 235.037 156.732 234.403C156.634 233.913 156.535 233.422 156.437 232.931C156.309 232.292 155.393 232.566 155.52 233.2Z" fill="#D3A55E"/>
<path d="M156.815 240.897C156.606 241.894 156.66 242.914 156.85 243.909C156.973 244.549 157.889 244.274 157.767 243.64C157.61 242.818 157.566 241.965 157.738 241.141C157.871 240.507 156.948 240.26 156.815 240.897Z" fill="#D3A55E"/>
<path d="M158.968 236.274C158.984 236.87 159.158 237.446 159.174 238.042C159.192 238.693 160.143 238.682 160.125 238.03C160.109 237.433 159.936 236.857 159.919 236.261C159.901 235.61 158.95 235.621 158.968 236.274Z" fill="#D3A55E"/>
<path d="M158.308 245.775C158.02 246.506 157.696 247.221 157.408 247.952C157.174 248.546 158.004 249.042 158.241 248.44C158.529 247.709 158.853 246.995 159.142 246.263C159.376 245.669 158.545 245.173 158.308 245.775Z" fill="#D3A55E"/>
<path d="M156.024 248.463C155.752 248.958 155.48 249.454 155.208 249.949C154.899 250.512 155.732 251 156.041 250.437C156.314 249.942 156.585 249.446 156.857 248.95C157.166 248.388 156.333 247.9 156.024 248.463Z" fill="#D3A55E"/>
<path d="M174.401 243.699C174.706 244.441 174.956 245.208 175.261 245.951C175.507 246.548 176.324 246.029 176.082 245.441C175.777 244.698 175.527 243.931 175.222 243.189C174.977 242.591 174.159 243.109 174.401 243.699Z" fill="#D3A55E"/>
<path d="M178.101 247.208C177.899 248.129 177.747 249.059 177.655 249.999C177.591 250.647 178.543 250.627 178.606 249.987C178.69 249.133 178.84 248.287 179.024 247.452C179.163 246.818 178.24 246.572 178.101 247.208Z" fill="#D3A55E"/>
<path d="M175.434 250.225C175.434 250.918 175.301 251.602 175.057 252.244C174.96 252.5 174.996 252.786 175.244 252.931C175.45 253.052 175.793 252.988 175.89 252.732C176.197 251.922 176.384 251.09 176.385 250.213C176.386 249.56 175.435 249.574 175.434 250.225Z" fill="#D3A55E"/>
<path d="M174.456 256.287C174.252 256.707 173.927 257.037 173.62 257.372C173.192 257.838 173.873 258.544 174.301 258.077C174.666 257.68 175.047 257.273 175.289 256.775C175.57 256.198 174.738 255.707 174.456 256.287Z" fill="#D3A55E"/>
<path d="M177.091 253.192C176.532 253.815 176.099 254.516 175.741 255.286C175.471 255.868 176.302 256.36 176.574 255.774C176.896 255.082 177.269 254.458 177.772 253.898C178.194 253.426 177.514 252.72 177.091 253.192Z" fill="#D3A55E"/>
<path d="M117.014 205.241C117.035 206.118 117.242 206.945 117.568 207.747C117.671 208 118.016 208.055 118.219 207.928C118.463 207.776 118.492 207.49 118.389 207.237C118.131 206.601 117.982 205.921 117.965 205.229C117.949 204.577 116.998 204.589 117.014 205.241Z" fill="#FFC871"/>
<path d="M113.112 208.209C113.362 208.468 113.612 208.727 113.863 208.986C114.302 209.441 114.966 208.718 114.527 208.263C114.277 208.004 114.027 207.744 113.776 207.485C113.337 207.031 112.673 207.754 113.112 208.209Z" fill="#FFC871"/>
<path d="M115.663 212.407C115.788 212.537 115.913 212.666 116.038 212.796C116.223 212.988 116.529 212.984 116.71 212.787C116.891 212.589 116.887 212.264 116.702 212.072C116.577 211.943 116.452 211.813 116.327 211.684C116.141 211.491 115.835 211.495 115.654 211.693C115.473 211.89 115.477 212.215 115.663 212.407Z" fill="#FFC871"/>
<path d="M118.581 212.503C118.592 212.837 118.699 213.199 118.917 213.446C119.094 213.647 119.414 213.627 119.589 213.437C119.776 213.233 119.758 212.923 119.581 212.723C119.535 212.671 119.657 212.848 119.594 212.73C119.585 212.713 119.576 212.695 119.569 212.677C119.628 212.808 119.582 212.709 119.572 212.678C119.558 212.635 119.548 212.591 119.538 212.548C119.534 212.526 119.53 212.505 119.526 212.483C119.549 212.619 119.533 212.524 119.532 212.49C119.523 212.215 119.314 211.988 119.051 211.991C118.796 211.995 118.572 212.227 118.581 212.503Z" fill="#FFC871"/>
<path d="M120.891 210.73C120.998 211.261 121.116 211.786 121.28 212.3C121.478 212.915 122.395 212.648 122.197 212.031C122.033 211.517 121.915 210.993 121.809 210.462C121.68 209.823 120.764 210.097 120.891 210.73Z" fill="#FFC871"/>
<path d="M122.833 215.632C122.519 216.006 122.491 216.544 122.633 217.006C122.713 217.267 122.959 217.434 123.217 217.359C123.458 217.288 123.63 216.998 123.55 216.737C123.532 216.681 123.518 216.626 123.507 216.569C123.497 216.512 123.497 216.51 123.506 216.564C123.501 216.519 123.501 216.474 123.501 216.43C123.505 216.372 123.503 216.371 123.498 216.429C123.502 216.401 123.507 216.373 123.514 216.346C123.53 216.291 123.528 216.294 123.508 216.355C123.555 216.241 123.437 216.428 123.513 216.337C123.686 216.132 123.697 215.822 123.505 215.623C123.326 215.437 123.005 215.426 122.833 215.632Z" fill="#FFC871"/>
<path d="M119.933 217.209C119.933 217.538 119.842 217.893 119.776 218.264C119.727 218.534 119.861 218.807 120.123 218.876C120.364 218.94 120.65 218.779 120.699 218.508C120.777 218.073 120.884 217.642 120.884 217.196C120.884 216.544 119.933 216.557 119.933 217.209Z" fill="#FFC871"/>
<path d="M118.215 219.426C118.347 220.055 118.581 220.652 119.007 221.121C119.433 221.59 120.096 220.865 119.671 220.397C119.363 220.058 119.227 219.609 119.132 219.157C118.998 218.519 118.082 218.793 118.215 219.426Z" fill="#FFC871"/>
<path d="M133.666 215.317C133.948 215.608 134.229 215.9 134.51 216.191C134.949 216.646 135.613 215.923 135.174 215.468C134.893 215.176 134.612 214.885 134.33 214.593C133.891 214.138 133.227 214.862 133.666 215.317Z" fill="#FFC871"/>
<path d="M135.851 214.763C136.103 215.486 136.505 216.105 137.016 216.649C137.45 217.111 138.113 216.387 137.681 215.926C137.294 215.514 136.96 215.045 136.769 214.494C136.557 213.887 135.639 214.152 135.851 214.763Z" fill="#FFC871"/>
<path d="M137.096 218.191C137.194 218.511 137.195 218.853 137.293 219.173C137.373 219.435 137.62 219.601 137.878 219.526C138.12 219.455 138.29 219.166 138.21 218.904C138.112 218.584 138.111 218.243 138.013 217.923C137.933 217.661 137.686 217.495 137.428 217.57C137.187 217.64 137.016 217.929 137.096 218.191Z" fill="#FFC871"/>
<path d="M140.463 220.902C140.612 221.375 140.743 221.911 140.666 222.414C140.624 222.685 140.745 222.956 141.012 223.026C141.248 223.088 141.547 222.93 141.589 222.658C141.693 221.976 141.585 221.283 141.38 220.633C141.185 220.017 140.267 220.284 140.463 220.902Z" fill="#FFC871"/>
<path d="M139.401 222.497C139.105 222.832 139.063 223.249 139.199 223.674C139.282 223.935 139.523 224.103 139.784 224.027C140.022 223.957 140.199 223.666 140.116 223.406C140.099 223.355 140.084 223.304 140.072 223.252C140.065 223.218 140.054 223.115 140.071 223.268C140.068 223.242 140.068 223.216 140.068 223.19C140.068 223.094 140.048 223.313 140.065 223.221C140.073 223.18 140.111 223.11 140.051 223.25C140.061 223.226 140.075 223.204 140.088 223.182C140.009 223.312 140.054 223.234 140.082 223.202C140.259 223.002 140.262 222.683 140.073 222.488C139.891 222.299 139.579 222.296 139.401 222.497Z" fill="#FFC871"/>
<path d="M136.439 222.661C136.878 223.116 137.542 222.393 137.103 221.938C136.664 221.483 136 222.206 136.439 222.661Z" fill="#FFC871"/>
<path d="M136.36 222.554C136.522 222.892 136.621 223.239 136.697 223.609C136.828 224.248 137.744 223.974 137.614 223.34C137.521 222.886 137.38 222.459 137.182 222.044C137.064 221.798 136.745 221.73 136.531 221.863C136.297 222.008 136.243 222.309 136.36 222.554Z" fill="#FFC871"/>
<path d="M139.744 226.733C139.486 227.208 139.262 227.7 139.16 228.24C139.039 228.877 139.961 229.125 140.083 228.484C140.17 228.023 140.357 227.626 140.577 227.222C140.884 226.658 140.051 226.169 139.744 226.733Z" fill="#FFC871"/>
<path d="M136.681 230.143C136.583 230.722 136.591 231.262 136.84 231.798C136.954 232.045 137.279 232.111 137.49 231.979C137.726 231.833 137.775 231.535 137.661 231.288C137.616 231.191 137.574 231.027 137.566 230.909C137.553 230.718 137.574 230.563 137.604 230.387C137.65 230.117 137.522 229.845 137.257 229.775C137.018 229.712 136.727 229.872 136.681 230.143Z" fill="#FFC871"/>
<path d="M139.597 231.253C139.245 231.636 138.949 232.04 138.84 232.575C138.71 233.21 139.633 233.457 139.763 232.819C139.837 232.456 140.04 232.218 140.278 231.958C140.705 231.492 140.025 230.786 139.597 231.253Z" fill="#FFC871"/>
<path d="M153.66 228.622C153.991 229.139 154.271 229.639 154.374 230.262C154.48 230.906 155.395 230.629 155.291 229.994C155.175 229.292 154.854 228.694 154.481 228.112C154.138 227.576 153.315 228.083 153.66 228.622Z" fill="#FFC871"/>
<path d="M156.318 227.514C156.583 227.788 156.854 228.064 156.947 228.457C157.096 229.091 158.012 228.819 157.864 228.189C157.73 227.621 157.366 227.189 156.982 226.79C156.544 226.335 155.879 227.058 156.318 227.514Z" fill="#FFC871"/>
<path d="M155.755 229.555C155.844 230.04 155.776 230.541 155.865 231.03C155.915 231.301 156.215 231.452 156.45 231.383C156.715 231.306 156.831 231.031 156.782 230.762C156.694 230.277 156.761 229.776 156.672 229.287C156.623 229.016 156.323 228.865 156.087 228.934C155.823 229.011 155.706 229.286 155.755 229.555Z" fill="#FFC871"/>
<path d="M159.182 229.549C159.075 230.196 159.102 230.85 159.298 231.477C159.49 232.094 160.408 231.827 160.215 231.208C160.071 230.748 160.026 230.272 160.105 229.793C160.211 229.155 159.289 228.905 159.182 229.549Z" fill="#FFC871"/>
<path d="M158.425 233.39C158.997 233.983 159.56 234.578 159.945 235.329C160.239 235.903 161.059 235.39 160.766 234.819C160.342 233.991 159.719 233.32 159.089 232.667C158.65 232.212 157.986 232.935 158.425 233.39Z" fill="#FFC871"/>
<path d="M160.377 237.927C160.376 238.35 160.295 238.765 160.222 239.179C160.174 239.449 160.306 239.722 160.569 239.792C160.809 239.855 161.097 239.694 161.145 239.423C161.232 238.926 161.327 238.422 161.328 237.915C161.329 237.262 160.378 237.276 160.377 237.927Z" fill="#FFC871"/>
<path d="M157.289 235.311C157.289 235.665 157.226 236.022 157.086 236.344C156.977 236.593 157.034 236.89 157.273 237.03C157.487 237.156 157.81 237.082 157.919 236.832C158.129 236.349 158.24 235.831 158.24 235.299C158.242 234.646 157.291 234.66 157.289 235.311Z" fill="#FFC871"/>
<path d="M155.55 237.008C155.551 237.518 155.489 238.005 155.583 238.513C155.633 238.784 155.932 238.935 156.168 238.866C156.432 238.789 156.549 238.514 156.5 238.245C156.424 237.835 156.501 237.409 156.5 236.995C156.499 236.343 155.548 236.356 155.55 237.008Z" fill="#FFC871"/>
<path d="M157.447 239.472C157.543 239.766 157.639 240.06 157.735 240.354C157.82 240.615 158.058 240.784 158.32 240.707C158.557 240.638 158.737 240.346 158.652 240.086C158.556 239.792 158.46 239.498 158.364 239.204C158.278 238.944 158.041 238.775 157.779 238.851C157.541 238.92 157.362 239.212 157.447 239.472Z" fill="#FFC871"/>
<path d="M158.946 242.277C158.95 242.615 158.965 242.926 158.88 243.232C158.807 243.496 158.984 243.78 159.227 243.844C159.487 243.913 159.73 243.74 159.803 243.476C159.912 243.087 159.902 242.666 159.897 242.264C159.894 241.989 159.675 241.762 159.416 241.765C159.157 241.769 158.943 242.001 158.946 242.277Z" fill="#FFC871"/>
<path d="M155.509 241.437C155.521 241.753 155.624 242.053 155.721 242.349C155.806 242.609 156.044 242.778 156.305 242.702C156.543 242.633 156.722 242.341 156.637 242.081C156.594 241.946 156.55 241.812 156.511 241.676C156.494 241.615 156.48 241.554 156.467 241.492C156.457 241.434 156.456 241.435 156.464 241.497C156.462 241.473 156.46 241.448 156.46 241.424C156.449 241.149 156.243 240.921 155.978 240.925C155.725 240.928 155.499 241.161 155.509 241.437Z" fill="#FFC871"/>
<path d="M173.168 241.255C173.302 241.545 173.298 241.851 173.302 242.184C173.31 242.836 174.261 242.824 174.253 242.172C174.247 241.671 174.199 241.2 173.989 240.745C173.875 240.497 173.55 240.432 173.339 240.563C173.102 240.71 173.054 241.008 173.168 241.255Z" fill="#FFC871"/>
<path d="M174.102 245.844C174.278 246.373 174.5 246.883 174.676 247.411C174.88 248.023 175.798 247.757 175.593 247.143C175.417 246.614 175.195 246.104 175.019 245.576C174.815 244.964 173.897 245.23 174.102 245.844Z" fill="#FFC871"/>
<path d="M176.941 247.601C177.146 247.225 177.327 246.845 177.677 246.6C178.189 246.244 177.71 245.37 177.197 245.728C176.693 246.079 176.404 246.57 176.108 247.113C175.801 247.677 176.634 248.165 176.941 247.601Z" fill="#FFC871"/>
<path d="M211.757 229.099C212.158 221.278 209.019 220.673 206.559 215.814C204.1 210.955 209.057 191.556 209.057 191.556L198.161 189.135L198.168 189.097L187.115 186.601C187.115 186.601 184.278 206.475 180.182 209.865C176.085 213.256 172.984 212.463 170.378 219.79C167.773 227.117 156.047 278.14 157.51 284.119C158.972 290.099 195.477 298.316 199.087 293.473C202.697 288.629 211.357 236.919 211.757 229.099Z" fill="#88B4D3"/>
<path d="M207.597 229.18C208.073 221.912 204.98 221.675 202.989 217.213C200.998 212.751 205.579 194.293 205.579 194.293L196.821 192.351L196.828 192.315L189.268 190.608C189.268 190.608 186.524 209.115 183.005 212.343C179.487 215.572 175.153 214.508 172.825 221.361C170.496 228.215 159.697 275.813 160.827 281.336C161.956 286.858 192.632 293.76 195.766 289.192C198.899 284.624 207.121 236.449 207.597 229.18Z" fill="#9ED2F2"/>
<path d="M209.809 201.576L182.333 195.371L184.093 186.577C184.444 184.82 186.069 183.699 187.723 184.072L209.21 188.924C210.864 189.297 211.919 191.024 211.568 192.781L209.809 201.576Z" fill="#E5181F"/>
<path d="M209.21 188.924L203.574 187.651C205.228 188.025 206.283 189.752 205.932 191.508L204.173 200.303L209.809 201.576L211.568 192.781C211.919 191.024 210.864 189.297 209.21 188.924Z" fill="#AA131F"/>
<path d="M209.544 203.078L182.067 196.874L181.419 200.117L208.895 206.322L209.544 203.078Z" fill="#E5181F"/>
<path opacity="0.27" d="M189.208 185.51C188.42 185.371 187.507 185.318 186.931 185.906C186.692 186.149 186.544 186.475 186.426 186.804C186.064 187.811 185.941 188.915 186.071 189.985C186.147 190.601 186.42 191.321 186.999 191.405C187.524 191.482 187.962 190.97 188.183 190.458C188.405 189.946 188.535 189.36 188.926 188.98C189.326 188.591 189.907 188.509 190.448 188.487C191.726 188.436 193.011 188.62 194.231 189.027C194.724 189.191 195.225 189.395 195.74 189.352C196.255 189.309 196.791 188.925 196.825 188.377C196.849 187.986 196.612 187.62 196.307 187.401C196.002 187.181 195.637 187.081 195.28 186.985C193.283 186.447 191.24 185.868 189.208 185.51Z" fill="white"/>
<path d="M209.543 203.079L203.984 201.824L203.336 205.068L208.895 206.323L209.543 203.079Z" fill="#AA131F"/>
<path d="M171.202 225.284C166.504 245.925 160.252 276.366 160.879 281.076C161.772 287.781 192.449 294.678 195.819 288.926C198.186 284.887 204.051 254.4 207.614 233.506L171.202 225.284Z" fill="#EAC113"/>
<path d="M207.675 233.52L199.813 231.745C196.289 251.447 191.649 274.585 189.609 278.066C187.193 282.19 170.745 279.813 161.295 275.667C160.957 278.277 160.818 280.172 160.94 281.09C161.833 287.795 192.51 294.692 195.881 288.939C198.247 284.901 204.112 254.414 207.675 233.52Z" fill="#E8AC15"/>
<path d="M171.251 225.039C170.25 228.439 180.137 229.866 188.924 231.987C197.71 234.107 207.271 235.837 207.663 233.261C208.056 230.686 198.821 229.159 189.912 226.873C181.003 224.588 171.916 222.78 171.251 225.039Z" fill="#FFD217"/>
<path opacity="0.46" d="M176.311 222.081C175.581 223.967 175.047 225.939 174.721 227.949C174.557 228.96 174.451 230.033 174.808 230.987C175.165 231.941 176.128 232.712 177.068 232.473C177.854 232.273 178.364 231.472 178.69 230.687C179.544 228.636 179.687 226.275 180.778 224.355C182.024 222.164 188.905 217.01 183.403 216.312C179.95 215.875 177.542 218.897 176.311 222.081Z" fill="white"/>
<path d="M168.24 261.576C170.422 263.367 170.333 265.226 172.891 267.751C173.193 268.049 172.307 268.487 172.145 268.89C171.916 269.461 170.728 268.585 170.145 268.594C169.561 268.604 169 268.371 168.463 268.127C165.526 266.793 161.197 264.661 159.629 261.517C159.237 260.731 156.394 255.926 157.472 255.907C160.542 255.852 162.534 259.224 163.422 259.66C165.355 260.611 165.994 259.733 168.24 261.576Z" fill="#AD3E3B"/>
<path d="M163.255 263.677C159.964 261.405 159.036 253.044 151.954 254.604C144.872 256.164 137.396 268.035 136.943 275.248C136.49 282.46 143.042 289.123 147.854 292.622C153.474 296.708 163.684 299.822 170.829 290.678C177.079 282.678 179.9 273.606 173.192 267.999C169.108 264.585 168.644 267.399 163.255 263.677Z" fill="#D34D46"/>
<path d="M176.314 272.188C175.722 276.229 173.426 280.594 170.234 284.679C163.089 293.823 152.879 290.709 147.259 286.623C143.566 283.938 138.849 279.39 137.059 274.159C137.004 274.532 136.965 274.896 136.943 275.248C136.49 282.461 143.041 289.123 147.853 292.622C153.474 296.708 163.683 299.822 170.828 290.678C175.693 284.451 178.48 277.575 176.314 272.188Z" fill="#AD3E3B"/>
<path opacity="0.27" d="M151.54 259.662C149.795 260.147 148.249 261.305 147.096 262.779C146.424 263.638 145.862 264.649 145.765 265.762C145.669 266.874 146.133 268.093 147.073 268.594C147.314 268.722 147.585 268.802 147.853 268.772C148.23 268.729 148.555 268.48 148.859 268.24C150.291 267.111 151.806 265.952 153.571 265.679C154.414 265.549 155.278 265.629 156.116 265.467C156.953 265.306 157.816 264.824 158.109 263.974C158.561 262.662 157.47 260.94 156.476 260.245C155.105 259.287 153.073 259.235 151.54 259.662Z" fill="white"/>
<path opacity="0.27" d="M145.37 269.783C144.741 269.303 143.773 269.561 143.321 270.229C142.869 270.896 142.897 271.845 143.265 272.569C143.459 272.952 143.779 273.306 144.186 273.351C144.481 273.384 144.77 273.248 145.018 273.074C145.476 272.753 145.852 272.279 145.999 271.717C146.146 271.155 146.039 270.508 145.666 270.081L145.37 269.783Z" fill="white"/>
<path d="M162.428 262.938C162.428 262.938 165.729 259.064 167.828 257.54C169.928 256.016 174.269 254.489 174.269 254.489L175.141 256.414C175.141 256.414 171.788 256.753 169.03 258.614C167.103 259.915 163.255 263.677 163.255 263.677L162.428 262.938Z" fill="#60443E"/>
<path d="M169.03 258.614C169.03 258.614 175.008 257.749 178.466 260.391C183.093 263.927 185.704 268.175 185.704 268.175C185.704 268.175 179.503 270.455 175.4 268.144C171.297 265.833 167.699 259.632 167.699 259.632L169.03 258.614Z" fill="#436B49"/>
<path opacity="0.27" d="M175.693 261.377C175.606 261.398 175.517 261.427 175.461 261.499C175.386 261.593 175.385 261.742 175.409 261.877C175.488 262.332 175.797 262.74 176.15 263.031C176.502 263.322 176.903 263.518 177.29 263.737C178.195 264.248 179.048 264.899 179.813 265.661C180.084 265.93 180.353 266.22 180.679 266.382C181.695 266.884 181.868 265.67 181.673 264.845C181.492 264.075 181.007 263.713 180.417 263.288C179.027 262.287 177.293 260.985 175.693 261.377Z" fill="white"/>
<path d="M126.006 264.652C128.613 263.698 130.026 264.797 133.417 263.913C133.817 263.808 133.676 264.836 133.904 265.201C134.227 265.717 132.886 266.291 132.573 266.814C132.26 267.338 131.768 267.708 131.282 268.051C128.619 269.926 124.565 272.599 121.231 272.265C120.397 272.181 115.057 272.067 115.633 271.1C117.276 268.343 121.023 268.426 121.853 267.878C123.662 266.683 123.323 265.633 126.006 264.652Z" fill="#AD3E3B"/>
<path d="M124.921 270.232C121.327 271.906 114.24 268.139 111.578 275.283C108.916 282.428 114.149 295.585 119.573 299.948C124.998 304.311 133.836 302.152 139.231 299.801C145.532 297.055 153.588 289.7 150.319 278.334C147.459 268.391 141.872 260.905 133.778 263.781C128.849 265.533 130.808 267.49 124.921 270.232Z" fill="#D34D46"/>
<path d="M138.787 263.311C141.641 266.054 143.813 270.49 145.273 275.568C148.543 286.933 140.486 294.288 134.186 297.035C130.045 298.839 123.877 300.53 118.781 299.247C119.044 299.5 119.308 299.735 119.573 299.948C124.998 304.311 133.836 302.153 139.231 299.801C145.532 297.055 153.588 289.7 150.319 278.334C148.092 270.595 144.214 264.345 138.787 263.311Z" fill="#AD3E3B"/>
<path opacity="0.27" d="M115.329 278.428C114.752 280.243 114.815 282.252 115.341 284.085C115.648 285.154 116.134 286.208 116.956 286.905C117.778 287.602 118.992 287.859 119.902 287.3C120.135 287.156 120.347 286.959 120.47 286.704C120.644 286.346 120.626 285.921 120.605 285.519C120.503 283.627 120.423 281.646 121.178 279.929C121.537 279.109 122.075 278.386 122.409 277.553C122.742 276.721 122.836 275.69 122.329 274.963C121.545 273.842 119.591 273.864 118.499 274.365C116.992 275.057 115.836 276.832 115.329 278.428Z" fill="white"/>
<path opacity="0.27" d="M119.902 289.464C119.179 289.76 118.85 290.76 119.128 291.528C119.405 292.296 120.166 292.793 120.937 292.864C121.345 292.901 121.799 292.812 122.059 292.476C122.246 292.232 122.298 291.9 122.298 291.584C122.297 291.001 122.13 290.407 121.769 289.968C121.408 289.529 120.84 289.269 120.299 289.365L119.902 289.464Z" fill="white"/>
<path d="M123.885 270.56C123.885 270.56 122.651 265.502 122.605 262.801C122.559 260.1 123.742 255.406 123.742 255.406L125.735 255.69C125.735 255.69 124.16 258.853 124.109 262.324C124.074 264.75 124.921 270.232 124.921 270.232L123.885 270.56Z" fill="#60443E"/>
<path d="M124.11 262.324C124.11 262.324 126.712 256.54 130.689 254.921C136.012 252.754 140.787 252.769 140.787 252.769C140.787 252.769 139.176 259.526 135.104 261.9C131.033 264.275 124.18 264.063 124.18 264.063L124.11 262.324Z" fill="#436B49"/>
<path opacity="0.27" d="M129.942 257.924C129.911 258.013 129.885 258.108 129.91 258.197C129.943 258.316 130.06 258.398 130.179 258.451C130.581 258.631 131.071 258.581 131.494 258.428C131.916 258.274 132.29 258.026 132.675 257.802C133.574 257.28 134.554 256.88 135.574 256.619C135.935 256.527 136.311 256.447 136.617 256.246C137.57 255.62 136.71 254.799 135.954 254.519C135.249 254.257 134.698 254.489 134.039 254.78C132.488 255.464 130.513 256.289 129.942 257.924Z" fill="white"/>
<path d="M67.7302 281.225L68.227 296.621L65.5142 304.523L68.7484 312.785L222.029 313L224.546 300.847L216.721 272.293L67.7302 281.225Z" fill="#E0BD9D"/>
<path d="M68.227 296.621C68.227 296.621 119.953 305.651 144.633 306C169.314 306.348 209.32 303.213 209.32 303.213C209.32 303.213 202.925 313.025 203.582 313C204.238 312.975 222.03 313 222.03 313L224.546 300.847L219.604 282.812L67.7305 280.24L68.227 296.621Z" fill="#C4A58C"/>
<path d="M63.3711 256.917C63.3711 256.917 84.4306 273.324 130.372 272.756C176.314 272.188 220.058 254.537 220.058 254.537L228 282.986C228 282.986 211.84 301.811 160.035 301.272C108.23 300.732 64.2059 291.832 63.3711 290.066C62.5361 288.299 63.3711 256.917 63.3711 256.917Z" fill="#EBCFA8"/>
<path opacity="0.21" d="M70.7706 272.35C71.4278 272.749 72.114 273.317 72.1805 274.119C72.2849 275.376 70.9082 276.088 70.1087 277.02C68.534 278.858 69.3209 282.006 71.1122 283.604C72.9037 285.201 75.3347 285.658 77.6431 286.057C91.4875 288.449 105.332 290.841 119.176 293.233C130.381 295.169 143.029 296.751 152.041 289.418C152.454 289.082 152.878 288.693 153.01 288.157C153.328 286.861 151.846 285.95 150.636 285.573C134.05 280.409 116.208 282.276 99.306 278.438C98.0216 278.146 96.6868 277.792 95.7015 276.869C95.1186 276.323 94.6942 275.61 94.1229 275.05C93.2351 274.18 92.0579 273.74 90.916 273.322C84.382 270.93 77.8354 267.984 71.2039 265.965C69.3404 265.398 67.3391 264.228 66.3517 266.746C65.1049 269.926 69.0871 271.009 70.7706 272.35Z" fill="white"/>
<path opacity="0.21" d="M174.218 274.268C172.595 274.816 170.59 276.091 171.095 277.819C175.147 279.877 179.876 278 184.25 276.913C195.029 274.233 206.962 276.476 216.806 271.097C218.357 270.25 220.037 268.663 219.521 266.894C219.355 266.326 218.977 265.858 218.583 265.436C213.554 260.057 204.799 265.031 198.829 266.694C190.566 268.996 182.359 271.522 174.218 274.268Z" fill="white"/>
<path d="M65.5142 304.523L104.783 307.747L67.326 309.152L65.5142 304.523Z" fill="#C4A58C"/>
</svg>
