<svg width="25" height="47" viewBox="0 0 25 47" fill="none" xmlns="http://www.w3.org/2000/svg">
<path d="M6.37863 3.46978C6.37863 3.46978 6.6717 6.02922 5.20633 6.78275C3.74036 7.53503 0 9.41965 0 11.8289C0 14.2384 0.467506 25.6891 0.733294 32.6879C1.09933 42.3289 1.24648 46.9226 4.17966 46.9972C7.11253 47.0737 20.1558 45.5497 22.5776 45.1815C25.001 44.8134 25.1469 41.7272 24.9274 36.8309C24.7067 31.9356 24.9274 19.961 24.7067 16.2711C24.4875 12.5815 23.681 12.9581 21.3345 10.3977C18.9896 7.83701 17.8192 6.86179 16.863 5.87933C15.9099 4.90096 16.2039 4.3732 15.9844 3.39484C11.0709 3.46978 6.37863 3.46978 6.37863 3.46978Z" fill="#F2F1F0"/>
<path d="M24.927 36.8313C24.7873 33.7236 24.825 27.7649 24.8151 22.8813C20.4939 23 7.49197 23.3328 6.98952 23.0749C6.95549 23.0573 6.91502 23.034 6.87854 23.0135L7.66027 46.8215C12.6634 46.421 20.7247 45.4634 22.5772 45.1819C25.0006 44.8135 25.1468 41.7272 24.927 36.8313Z" fill="#56B5EB"/>
<path d="M0.212036 19.049C0.370222 23.4046 0.583894 28.7502 0.73319 32.6879C1.09922 42.3289 1.24637 46.9226 4.17956 46.9972C4.86901 47.0148 6.12223 46.944 7.66056 46.8212L6.87883 23.0132C5.56736 22.2754 2.24362 20.278 0.212036 19.049Z" fill="#45A2CC"/>
<path d="M6.61348 15.8768C6.61348 15.8768 6.64781 16.2481 6.70637 16.8993C6.75266 17.5505 6.84156 18.4804 6.90686 19.5963C6.97154 20.7126 7.06627 22.0147 7.13402 23.4093C7.20668 24.8068 7.26339 26.2969 7.32102 27.7857C7.36701 29.2758 7.41452 30.7658 7.43844 32.1633C7.46971 33.5608 7.46541 34.8676 7.47921 35.9852C7.49116 37.1043 7.46541 38.037 7.46388 38.6898C7.451 39.3435 7.44242 39.7163 7.44242 39.7163C7.44242 39.7163 7.4087 39.3454 7.34953 38.6942C7.30416 38.0442 7.2125 37.1147 7.14843 35.9968C7.08283 34.8808 6.98871 33.5803 6.92188 32.1822C6.84923 30.786 6.79282 29.2975 6.73518 27.8074C6.69042 26.3174 6.64291 24.826 6.61869 23.4298C6.58865 22.0323 6.59202 20.7255 6.57853 19.608C6.56719 18.4892 6.59202 17.5546 6.59202 16.9053C6.60581 16.2497 6.61348 15.8768 6.61348 15.8768Z" fill="#DEDEDE"/>
<path d="M2.77139 10.9988C2.77139 10.9988 3.06692 11.087 3.46575 11.2807C3.86766 11.4743 4.37685 11.7691 4.85815 12.1063C5.33792 12.4464 5.79041 12.8262 6.10801 13.1432C6.42929 13.4553 6.61322 13.7091 6.61322 13.7091C6.61322 13.7091 6.31769 13.6228 5.91794 13.4276C5.51481 13.2383 5.00684 12.9405 4.52584 12.6035C4.04699 12.2631 3.59451 11.8834 3.2763 11.5666C2.95472 11.2526 2.77139 10.9988 2.77139 10.9988Z" fill="#DEDEDE"/>
<path d="M9.77853 13.3237C9.77853 13.3237 9.9312 13.2913 10.2007 13.2516C10.4695 13.2179 10.8543 13.1505 11.3156 13.102C12.2381 12.9965 13.4714 12.9071 14.7044 12.8662C15.9398 12.8293 17.1737 12.8413 18.102 12.8882C18.5658 12.9071 18.9527 12.9496 19.2228 12.9672C19.4938 12.9921 19.6498 13.0129 19.6498 13.0129C19.6498 13.0129 19.4953 13.0434 19.2271 13.0847C18.9579 13.12 18.5744 13.1858 18.1127 13.2343C17.1887 13.3382 15.9576 13.4279 14.7224 13.4689C13.4895 13.5057 12.254 13.4937 11.3257 13.4468C10.8625 13.4263 10.475 13.3867 10.204 13.3678C9.93273 13.3442 9.77853 13.3237 9.77853 13.3237Z" fill="#DEDEDE"/>
<path d="M11.3124 28.3207C11.3071 28.3043 11.305 28.2838 11.305 28.2561V28.168C11.2422 28.0039 11.1437 27.8836 11.0095 27.809C10.8746 27.7356 10.7268 27.6947 10.5665 27.6903C10.4521 27.7271 10.343 27.7829 10.2394 27.8575L10.076 28.0732C10.0604 28.0952 10.045 28.1113 10.0306 28.1245C10.0138 28.1377 9.99905 28.151 9.98249 28.161V30.358C9.97728 30.4815 9.94233 30.5725 9.87734 30.6323C9.81327 30.695 9.74092 30.7265 9.66397 30.7265C9.59193 30.7265 9.52388 30.6969 9.46195 30.6408C9.40002 30.5848 9.35987 30.4997 9.34576 30.3813V27.2894C9.37213 27.1839 9.41259 27.1046 9.46931 27.0536C9.52633 27.0038 9.59193 26.9771 9.66397 26.9771C9.7259 26.9771 9.78691 27.0004 9.84607 27.0476C9.90585 27.0914 9.94877 27.1619 9.97513 27.2573C10.0582 27.2003 10.1582 27.1443 10.2753 27.0945C10.3914 27.0432 10.5144 27.018 10.6444 27.018C10.8304 27.018 11.0211 27.0665 11.2158 27.165C11.4092 27.2645 11.5668 27.3877 11.6854 27.5372C11.7425 27.4787 11.8035 27.4185 11.8688 27.3568C11.9328 27.2967 12.0018 27.2409 12.0739 27.1896C12.1471 27.1399 12.2213 27.097 12.3001 27.0621C12.378 27.0284 12.4555 27.0089 12.5337 27.0089C12.6949 27.0089 12.8531 27.0385 13.0083 27.0942C13.1631 27.1499 13.3026 27.2261 13.4239 27.3244C13.5453 27.4239 13.6447 27.5385 13.7195 27.6689C13.7952 27.7992 13.8329 27.9372 13.8329 28.0811C13.8329 28.0899 13.8308 28.0987 13.8283 28.1047C13.8259 28.1103 13.8243 28.1179 13.8243 28.128C13.8292 28.1336 13.8329 28.1396 13.8329 28.144C13.8329 28.15 13.8344 28.1544 13.8409 28.1601V30.325C13.8344 30.4481 13.8001 30.5391 13.736 30.6002C13.6704 30.6619 13.5987 30.6928 13.5208 30.6928C13.4485 30.6928 13.381 30.6635 13.3191 30.6077C13.2563 30.5517 13.2182 30.4654 13.202 30.3483V28.1601C13.145 27.9737 13.0576 27.8477 12.9377 27.7803C12.8185 27.7145 12.7002 27.6808 12.5803 27.6808C12.4451 27.6808 12.324 27.7161 12.2158 27.7851C12.1057 27.854 12.0156 27.9812 11.943 28.1677V30.3177C11.9374 30.4396 11.9031 30.5319 11.8381 30.5936C11.7725 30.6534 11.7017 30.6843 11.6247 30.6843C11.5512 30.6843 11.4831 30.6566 11.4218 30.6005C11.3608 30.5451 11.3212 30.4585 11.3053 30.341V28.3522C11.305 28.3368 11.3071 28.3251 11.3124 28.3207Z" fill="white"/>
<path d="M14.7352 25.9961C14.7352 25.879 14.7701 25.7789 14.8437 25.6954C14.9163 25.6132 15.004 25.5735 15.1076 25.5735C15.2119 25.5735 15.3005 25.6132 15.3759 25.6954C15.4507 25.7789 15.4887 25.879 15.4887 25.9961C15.4887 26.1076 15.4507 26.2046 15.3759 26.2877C15.3005 26.3699 15.2119 26.4108 15.1076 26.4108C15.004 26.4108 14.9163 26.3699 14.8437 26.2877C14.7701 26.2046 14.7352 26.1076 14.7352 25.9961ZM15.4498 30.3416C15.4449 30.4632 15.409 30.5558 15.3449 30.6172C15.2802 30.6789 15.2085 30.7082 15.1316 30.7082C15.0586 30.7082 14.9911 30.6814 14.9292 30.6244C14.8676 30.569 14.8271 30.4824 14.8121 30.3649C14.8066 29.8646 14.8026 29.3544 14.8008 28.8305C14.7977 28.3087 14.7928 27.7983 14.7885 27.2966C14.8143 27.1911 14.8563 27.1102 14.9127 27.0589C14.9706 27.0047 15.0341 26.9767 15.1076 26.9767C15.1754 26.9767 15.2388 27.0016 15.2989 27.0501C15.3575 27.0986 15.4004 27.1716 15.4268 27.2727C15.432 27.7746 15.4347 28.2848 15.4381 28.8069C15.4403 29.3296 15.4449 29.8416 15.4498 30.3416Z" fill="white"/>
<path d="M17.3543 30.2126C17.4478 30.2828 17.5021 30.3605 17.5183 30.4503C17.5334 30.5366 17.522 30.6128 17.4831 30.6761C17.4448 30.7409 17.3847 30.786 17.3034 30.814C17.2237 30.8392 17.1308 30.8272 17.0272 30.7743C16.9812 30.7406 16.934 30.7082 16.8881 30.6761C16.8421 30.6449 16.7915 30.6131 16.7403 30.5822C16.6949 30.5381 16.6633 30.5 16.6468 30.4616C16.6321 30.4235 16.6189 30.3709 16.6082 30.302V25.8689C16.629 25.7679 16.6689 25.6898 16.7289 25.6356C16.7881 25.583 16.8503 25.555 16.9156 25.5534C16.9797 25.5493 17.0438 25.5739 17.1063 25.6208C17.1685 25.668 17.2148 25.7442 17.2455 25.8453V30.142C17.2611 30.1524 17.2777 30.1656 17.2967 30.1776C17.3142 30.1905 17.3338 30.2022 17.3543 30.2126Z" fill="white"/>
<path d="M19.2055 30.5775C19.1432 30.6377 19.0739 30.6698 18.9998 30.6726C18.924 30.6758 18.8548 30.6477 18.7891 30.5939C18.7242 30.5366 18.6843 30.45 18.669 30.3328V25.7805C18.6892 25.6794 18.7297 25.6016 18.7891 25.549C18.8489 25.4945 18.9115 25.4681 18.9755 25.4637C19.0402 25.4624 19.1046 25.4841 19.1668 25.5326C19.2294 25.5811 19.2754 25.6542 19.3066 25.7553V28.0962C19.4412 28.0171 19.5617 27.9346 19.6678 27.848C19.7741 27.7646 19.8793 27.6707 19.9826 27.5694C20.0868 27.4683 20.192 27.3568 20.298 27.2381C20.4041 27.1181 20.5203 26.9859 20.6448 26.8423C20.7331 26.7673 20.8189 26.7336 20.9044 26.738C20.9915 26.7437 21.0595 26.7733 21.1107 26.8262C21.1619 26.8801 21.1914 26.9493 21.1963 27.0388C21.2015 27.1254 21.1687 27.2145 21.0942 27.3058C20.8971 27.5388 20.7168 27.7441 20.551 27.9173C20.3848 28.0905 20.2094 28.2461 20.0224 28.3849C20.2864 28.6888 20.5372 28.9731 20.7729 29.243C21.0093 29.511 21.2582 29.7975 21.5234 30.1008C21.5905 30.1981 21.6175 30.29 21.6052 30.3782C21.592 30.4645 21.5577 30.5347 21.5034 30.5848C21.4492 30.6361 21.3784 30.6594 21.2941 30.6569C21.2079 30.6537 21.1242 30.6099 21.0414 30.5246C20.7659 30.2107 20.5065 29.9128 20.2637 29.63C20.0191 29.3485 19.7606 29.0522 19.485 28.7442C19.4544 28.759 19.4246 28.7751 19.3964 28.7914C19.3673 28.8075 19.3382 28.8236 19.3066 28.8396V30.3092C19.302 30.4267 19.2683 30.5161 19.2055 30.5775Z" fill="white"/>
<path d="M15.9841 3.39514C11.0709 3.47009 6.37865 3.47008 6.37865 3.47008C6.37865 3.47008 6.47338 4.31336 6.27933 5.1727H16.3348C16.0344 4.58574 16.1445 4.11089 15.9841 3.39514Z" fill="#B7B7B8"/>
<path d="M5.16129 0.215385C5.16129 0.215385 13.4093 0 15.6592 0C16.7389 0 16.8891 0.83289 16.8591 2.58841C16.829 4.19152 15.8088 4.16066 14.2496 4.31464C12.6898 4.46894 8.37099 4.40722 6.81121 4.37478C5.25204 4.34518 4.89183 4.31464 4.74161 3.14419C4.5917 1.97406 4.56166 0.215385 5.16129 0.215385Z" fill="#F2F1F0"/>
<path d="M6.79772 1.67617C6.87252 -0.3933 10.6034 0.220111 10.6034 0.220111L10.6769 0.085022C7.91728 0.145166 5.16129 0.215385 5.16129 0.215385C4.56166 0.215385 4.5917 1.97374 4.74161 3.14419C4.89214 4.31433 5.25204 4.34518 6.81121 4.37478C8.37069 4.4069 12.6895 4.46862 14.2496 4.31464C15.5304 4.18869 16.4455 4.18396 16.7484 3.29943C15.974 3.76768 14.5209 3.84986 12.0954 3.89961C8.29037 3.9755 6.72323 3.74563 6.79772 1.67617Z" fill="#DEDEDE"/>
<path d="M23.0614 15.1964C23.0614 15.1964 22.8642 22.2358 23.3575 22.2358C23.8501 22.2358 23.6037 12.6637 23.0614 15.1964Z" fill="white"/>
<path d="M23.321 23.8168C23.321 23.8168 23.1996 28.1636 23.504 28.1636C23.8085 28.1639 23.6558 22.2534 23.321 23.8168Z" fill="white"/>
</svg>
