<svg width="65" height="45" viewBox="0 0 65 45" fill="none" xmlns="http://www.w3.org/2000/svg">
<path d="M64.9636 18.4508C64.9756 18.3294 64.9838 18.2089 64.9907 18.0864C65.0537 16.8327 64.7869 15.6761 64.3581 14.5857C64.2058 14.1917 64.0288 13.8063 63.84 13.4291C63.0507 11.8442 61.1099 9.26369 60.6658 9.09978C60.4662 9.02546 56.9598 10.3022 56.7472 10.2599L56.7367 10.2578C50.4912 9.01855 42.6096 9.8448 36.4608 8.62165C36.0703 8.54398 35.6876 8.45878 35.3117 8.36291C34.9167 8.26326 34.529 8.15148 34.1533 8.02985C29.4825 6.51823 26.8433 5.28545 23.5607 4.63252C22.4535 4.4123 21.2736 4.2576 19.9188 4.1814C14.5015 3.87514 9.94806 6.17534 7.40768 12.6493C7.3813 12.7136 7.35646 12.778 7.33136 12.844L0.8343 21.9269C-0.971805 26.6602 1.39545 29.7919 2.42835 32.4697C2.49878 32.6483 2.56127 32.8237 2.61659 32.9977C3.49941 35.7753 7.43432 37.2464 10.5666 38.1258C10.7576 38.179 10.9551 38.2288 11.1549 38.2776C11.7557 38.4182 12.397 38.5338 13.0698 38.6313C13.2376 38.6571 13.4061 38.6801 13.5774 38.7006C13.634 38.709 13.6906 38.7172 13.7477 38.7239C14.0945 38.7687 14.4482 38.8088 14.8075 38.8486C15.0457 38.8733 15.2875 38.8989 15.5331 38.9236C15.655 38.9357 15.7792 38.9468 15.9029 38.9594C16.1829 38.9864 16.4664 39.014 16.7522 39.0408C16.7683 39.0425 16.7845 39.0441 16.8006 39.0458C16.8367 39.0485 16.8723 39.0525 16.9102 39.0557C16.9532 39.0596 16.9965 39.0638 17.0414 39.0682C17.09 39.0718 17.1389 39.0755 17.1873 39.0806C17.245 39.086 17.3005 39.091 17.3582 39.0965C17.446 39.1049 17.5341 39.1134 17.6238 39.1222C17.6238 39.1222 17.6238 39.1222 17.6255 39.1226C17.6652 39.126 17.7065 39.1298 17.748 39.1333C17.8537 39.1438 17.9618 39.1532 18.0676 39.1637C18.1017 39.1674 18.1342 39.1693 18.1677 39.1746C18.1969 39.1758 18.2236 39.1796 18.2505 39.1819C18.4195 39.1974 18.5898 39.2145 18.7583 39.2315C18.7619 39.2321 18.7652 39.233 18.7673 39.2317C19.0862 39.265 19.4089 39.2974 19.7303 39.3343C19.7395 39.3345 19.7482 39.3364 19.7572 39.3366C19.8268 39.3445 19.8965 39.3523 19.9679 39.3605C20.0666 39.3709 20.1644 39.3829 20.2625 39.3948C20.4162 39.4117 20.569 39.4316 20.7225 39.45C20.7294 39.4515 20.7365 39.4528 20.7419 39.4524C21.7277 39.5775 22.7194 39.7264 23.6972 39.9208C23.8785 39.9569 24.0594 39.9945 24.2399 40.0335L24.245 40.0345C24.4274 40.0739 24.609 40.1145 24.7882 40.1576C28.3541 41.0073 31.4272 42.4138 34.268 43.4785C34.6053 43.6045 34.9418 43.7272 35.2735 43.8415C35.4389 43.9001 35.6052 43.9558 35.7701 44.0096C35.9345 44.0649 36.0982 44.1172 36.2621 44.1679C37.0586 44.4138 37.8413 44.6133 38.617 44.7433C38.7082 44.7601 38.8002 44.7737 38.8918 44.7875C39.0565 44.8112 39.2194 44.8346 39.3803 44.853C39.5424 44.8731 39.703 44.8915 39.8628 44.9068C40.0205 44.9232 40.1755 44.9357 40.3304 44.9485C40.3448 44.9497 40.3591 44.9512 40.3722 44.9508C40.4554 44.9569 40.5369 44.9625 40.6203 44.9669C40.6836 44.9719 40.7458 44.9738 40.8094 44.9774C40.9495 44.9841 41.088 44.9906 41.2273 44.9941C41.2878 44.9956 41.3482 44.9971 41.4092 44.9971C41.4863 44.9987 41.5636 44.9991 41.6394 44.9991C41.7239 45.0008 41.8092 44.9998 41.8945 44.9985C41.9537 44.9981 42.0113 44.9975 42.0692 44.9956C42.1509 44.9937 42.2328 44.9918 42.3153 44.9872C42.3896 44.9853 42.4623 44.9832 42.5358 44.9782C42.5863 44.9761 42.6385 44.9744 42.6897 44.9696C42.7968 44.9638 42.9041 44.9564 43.0086 44.947C43.0478 44.9458 43.0872 44.943 43.1262 44.9372C43.2053 44.9317 43.2852 44.9236 43.3654 44.9154C43.4353 44.9098 43.5024 44.902 43.5715 44.893C43.6514 44.8848 43.7303 44.8748 43.8077 44.8631C43.8745 44.8553 43.9421 44.8461 44.0097 44.8352C44.0459 44.8319 44.0804 44.8267 44.114 44.8197C44.2218 44.8049 44.3286 44.7871 44.4344 44.7672C44.4551 44.7653 44.4748 44.7615 44.4948 44.7565C44.6096 44.7371 44.7233 44.7145 44.8355 44.6914C45.0257 44.6537 45.2155 44.6117 45.402 44.5627C45.4155 44.5608 45.4294 44.5574 45.4437 44.5528C45.4949 44.542 45.5454 44.5277 45.5953 44.5149C45.7075 44.4861 45.82 44.4555 45.9311 44.4233C45.9431 44.4197 45.9554 44.4159 45.9675 44.4124C46.2136 44.342 46.4564 44.265 46.6941 44.1796C46.8134 44.1384 46.932 44.0942 47.0488 44.0494C47.1656 44.0046 47.2826 43.9585 47.3989 43.9093C47.5016 43.8679 47.6035 43.8233 47.7054 43.7787C47.7241 43.7718 47.7416 43.7632 47.7585 43.7561C47.8402 43.718 47.9216 43.6799 48.0031 43.6418C48.159 43.5702 48.3135 43.4923 48.4666 43.4126C48.5363 43.3766 48.6065 43.3393 48.6771 43.3006C48.712 43.2832 48.743 43.2654 48.778 43.2468C48.7893 43.2399 48.8001 43.2346 48.8113 43.2277C48.8889 43.1844 48.9673 43.1381 49.0454 43.0931C49.0605 43.0856 49.0744 43.0762 49.0879 43.0684C49.184 43.0121 49.2785 42.9554 49.3717 42.897C49.3804 42.8926 49.3894 42.8869 49.3963 42.8823C49.498 42.8195 49.5986 42.7551 49.6977 42.6887C49.6977 42.6887 49.6995 42.6891 49.6998 42.6876C49.7846 42.6322 49.8704 42.5738 49.9544 42.5149C50.0253 42.4687 50.0937 42.4189 50.16 42.3703C50.1713 42.3634 50.1805 42.3577 50.1882 42.3502C50.2038 42.3412 50.2159 42.3316 50.2279 42.3219C50.2863 42.2807 50.3432 42.2393 50.3985 42.1959C50.4689 42.145 50.536 42.0936 50.6036 42.0404C50.6851 41.978 50.7668 41.9144 50.8454 41.8484L50.8961 41.8086C50.8984 41.8076 50.901 41.8051 50.9035 41.8026C50.9709 41.7496 51.0354 41.6946 51.1002 41.638C51.102 41.6385 51.1025 41.637 51.1028 41.6355C51.216 41.5403 51.3284 41.4419 51.4391 41.3431C51.4396 41.3416 51.4416 41.3406 51.4416 41.3406C52.5237 40.3665 53.4915 39.2246 54.3467 37.9399C54.5303 37.664 54.7088 37.381 54.8815 37.0923C55.5084 36.0533 56.0673 34.9328 56.5626 33.7469C56.613 33.6271 56.664 33.5059 56.7129 33.3843C56.8241 33.1105 56.9524 32.8342 57.0991 32.5524C57.3145 32.1333 57.5665 31.7081 57.8475 31.2733C58.099 30.8811 58.3733 30.4814 58.6622 30.0755C58.8018 29.88 58.9455 29.6822 59.0914 29.4833C59.6262 28.7536 60.1989 28.0025 60.7664 27.2311C61.0266 26.8783 61.2863 26.521 61.5414 26.1597C62.6701 24.5639 63.7135 22.8833 64.351 21.1142C64.665 20.248 64.8814 19.3598 64.9636 18.4508Z" fill="#E29276"/>
<path d="M8.72976 34.123C8.53 34.0742 8.33253 34.0244 8.14172 33.9713C8.33406 34.0263 8.52974 34.0757 8.72976 34.123Z" fill="#FFDDCF"/>
<path d="M14.3274 34.8848C14.3256 34.8844 14.3236 34.8854 14.3236 34.8854C14.4493 34.897 14.5753 34.9083 14.7029 34.9202C14.5769 34.9087 14.4514 34.8957 14.3274 34.8848ZM62.4937 14.6964C62.5109 14.5639 62.527 14.4299 62.5391 14.2963C62.5511 14.1749 62.5593 14.0543 62.5662 13.9319C62.6515 12.2252 62.1416 10.7064 61.0557 9.44746C60.8866 9.25236 60.7045 9.06375 60.5078 8.88121C59.2949 7.751 57.5523 6.8745 55.3036 6.32164C55.1902 6.29296 55.0747 6.26554 54.9568 6.23917C54.7458 6.19123 54.5353 6.1479 54.3227 6.1054L54.3122 6.10331C53.7595 5.9934 53.1927 5.90025 52.6165 5.82028C46.6836 4.99487 39.6413 5.58206 34.0363 4.46713C33.9579 4.45143 33.8796 4.43594 33.8032 4.41919C33.4921 4.3543 33.1878 4.28459 32.8874 4.20839C32.4924 4.10874 32.1047 3.99696 31.729 3.87534C27.0583 2.36372 24.419 1.13093 21.1364 0.478008C20.0292 0.257785 18.8493 0.103088 17.4945 0.0266796C12.0772 -0.27958 7.52378 2.02061 4.9834 8.49456C4.95677 8.55862 4.93218 8.6233 4.90708 8.68924L1.59657 17.3585C-0.329137 22.406 -0.307112 25.3778 0.581342 28.1747C1.00726 29.5168 2.05553 30.7094 3.37655 31.6813C4.13849 32.2419 4.99032 32.7299 5.86597 33.1318C6.44581 33.3981 7.03743 33.6259 7.6188 33.8126C7.79373 33.8699 7.96814 33.9229 8.1423 33.9711C8.33336 34.0242 8.53082 34.0741 8.73033 34.1228C9.33117 34.2635 9.97248 34.3791 10.6453 34.4766C10.8678 34.5103 11.0935 34.54 11.3232 34.5691C11.67 34.6139 12.0237 34.6541 12.383 34.6939C12.6212 34.7186 12.863 34.7441 13.1086 34.7688C13.2305 34.781 13.3547 34.7921 13.4784 34.8046C13.7583 34.8316 14.0424 34.858 14.3279 34.8846C14.4519 34.8957 14.5774 34.9085 14.7034 34.92C14.7231 34.9225 14.7431 34.9233 14.7625 34.9256C14.8148 34.93 14.8683 34.9361 14.9206 34.9405C15.0138 34.9501 15.1057 34.9577 15.199 34.9673C15.2402 34.9711 15.2817 34.9746 15.3232 34.9784C15.429 34.9889 15.537 34.9983 15.6428 35.0087C15.6766 35.0125 15.7094 35.0144 15.7429 35.0196C15.7704 35.0205 15.799 35.0232 15.8257 35.027C15.9947 35.0424 16.1632 35.0594 16.3335 35.0766C16.3374 35.0757 16.3392 35.0761 16.3428 35.0768C16.49 35.091 16.6383 35.1069 16.7874 35.1214C16.959 35.1404 17.1326 35.1584 17.306 35.1777C17.3147 35.1793 17.3221 35.1793 17.3308 35.1812C17.4919 35.1982 17.6523 35.2179 17.8146 35.2367C17.9755 35.2551 18.1373 35.2752 18.2977 35.2951C18.3046 35.2966 18.3102 35.2962 18.3174 35.2974C18.8445 35.3629 19.3746 35.4368 19.9014 35.5218C20.3599 35.5949 20.8178 35.6755 21.2729 35.7659C21.4543 35.8019 21.6351 35.8394 21.8154 35.8783L21.8208 35.8794C22.0028 35.9187 22.1847 35.9593 22.364 36.0025C23.8638 36.3611 25.2775 36.8159 26.6244 37.3041C28.4758 37.9757 30.1992 38.7065 31.8437 39.3234C32.181 39.4494 32.5175 39.5721 32.8492 39.6864C33.0147 39.745 33.1809 39.8007 33.3458 39.8545C33.5102 39.9097 33.6739 39.9621 33.8378 40.0127C34.7291 40.288 35.6027 40.5042 36.4676 40.6324C36.6322 40.656 36.7951 40.6795 36.956 40.6979C37.1181 40.718 37.2787 40.7364 37.4385 40.7517C37.5963 40.768 37.7512 40.7806 37.9062 40.7933C37.9205 40.7948 37.9348 40.7961 37.9479 40.7956C38.0941 40.8067 38.2391 40.8157 38.3851 40.8222C38.5252 40.8289 38.6637 40.8354 38.8031 40.839C38.8635 40.8404 38.9239 40.8419 38.9849 40.8419C39.062 40.8436 39.1393 40.844 39.2151 40.844C39.2997 40.8457 39.3849 40.8446 39.4702 40.8434C39.5294 40.8432 39.587 40.8425 39.6449 40.8405C39.7266 40.8386 39.8086 40.8367 39.891 40.8321C39.9653 40.8302 40.038 40.8281 40.1115 40.8231C40.162 40.821 40.2142 40.8193 40.2655 40.8145C40.3725 40.8086 40.4798 40.8013 40.5843 40.7919C40.6235 40.7906 40.6629 40.7879 40.7016 40.782C40.7808 40.7766 40.8607 40.7684 40.9408 40.7603C41.0107 40.7546 41.0778 40.7467 41.147 40.7379C41.2269 40.7297 41.3058 40.7197 41.3831 40.7079C41.45 40.7002 41.5176 40.691 41.5852 40.6803C41.6213 40.677 41.6562 40.6717 41.6894 40.6648C41.7973 40.6499 41.9041 40.6322 42.0098 40.6123C42.0306 40.6104 42.0503 40.6066 42.0703 40.6016C42.185 40.5821 42.2987 40.5595 42.4109 40.5365C42.6681 40.485 42.9219 40.4268 43.1708 40.36C43.283 40.3309 43.3954 40.3006 43.5066 40.2683C43.5186 40.2648 43.5309 40.261 43.5429 40.2574C43.7891 40.1871 44.0319 40.1103 44.2698 40.0247C44.3891 39.9834 44.5075 39.939 44.6242 39.8945C44.741 39.8499 44.8581 39.8036 44.9743 39.7544C45.077 39.713 45.1792 39.6684 45.2809 39.6238C45.2996 39.6169 45.317 39.6083 45.3339 39.6012L45.5785 39.4869C45.7345 39.4153 45.8889 39.3374 46.0421 39.2577C46.1117 39.2216 46.1822 39.1844 46.2526 39.1457C46.2872 39.1285 46.3184 39.1105 46.3535 39.0919C46.4424 39.0416 46.5315 38.9899 46.6209 38.9382C46.636 38.9307 46.6498 38.9212 46.6634 38.9135C46.7597 38.8572 46.854 38.8005 46.9472 38.7421C46.9559 38.7377 46.9649 38.732 46.972 38.7274C47.0737 38.6646 47.1741 38.6001 47.2735 38.5338C47.2735 38.5338 47.2753 38.5342 47.2755 38.5327C47.3603 38.477 47.4461 38.4186 47.5301 38.36C47.601 38.3137 47.6694 38.2639 47.7358 38.2154C47.7603 38.2007 47.7821 38.1838 47.8036 38.167C47.862 38.1258 47.9186 38.0843 47.9739 38.041C48.0444 37.9901 48.1115 37.9386 48.1791 37.8854C48.2605 37.8233 48.3422 37.7594 48.4208 37.6935C48.4378 37.6803 48.4547 37.6671 48.4716 37.6537C48.4716 37.6537 48.4762 37.6502 48.479 37.6476C48.5464 37.5947 48.6114 37.5382 48.6757 37.4831C48.6762 37.4816 48.678 37.4821 48.678 37.4821C48.7917 37.3853 48.9041 37.287 49.0148 37.1884C49.0153 37.1869 49.0173 37.1858 49.0173 37.1858C50.0994 36.2118 51.0673 35.0699 51.9224 33.7852C52.1061 33.5093 52.2846 33.2262 52.4572 32.9376C53.0841 31.8986 53.643 30.778 54.1383 29.5922C54.1888 29.4724 54.2397 29.3512 54.2889 29.2296C54.3998 28.9558 54.5284 28.6794 54.6751 28.3977C54.8903 27.9786 55.1425 27.5534 55.4232 27.1186C55.7165 26.6608 56.0397 26.1952 56.3821 25.7215C56.9963 24.8687 57.6727 23.9859 58.3424 23.0761C58.7537 22.5195 59.1625 21.9532 59.5543 21.3746C60.9683 19.2924 62.1767 17.0694 62.4937 14.6964Z" fill="#FFDFCA"/>
<path d="M64.35 21.1136C62.6799 22.5925 60.2015 21.8672 59.5525 21.3744L58.8177 19.6495L62.4934 14.6963C62.4934 14.6963 63.0108 14.9743 64.017 14.6961C64.1538 14.6585 64.2662 14.622 64.3582 14.5858C64.7869 15.6763 65.0538 16.8328 64.9908 18.0866C64.9839 18.209 64.9757 18.3296 64.9636 18.451C64.8814 19.3597 64.665 20.248 64.35 21.1136Z" fill="#C62C38"/>
<path d="M60.7588 14.8358C60.5816 15.8902 60.1943 16.9921 59.5891 18.1757C59.1878 18.9593 58.713 19.7357 58.2177 20.4749C57.458 19.4906 56.9391 18.3685 56.0612 17.4529C56.0433 17.4328 56.0225 17.415 56.0041 17.3964C56.7816 17.2718 57.5174 16.9155 58.2379 16.443C59.0201 15.9314 59.8312 15.1539 60.7588 14.8358Z" fill="#E25A5A"/>
<path d="M60.8677 13.8749C60.8657 13.9003 60.8652 13.9273 60.8631 13.9526C58.8252 14.5086 57.3441 16.934 55.1836 16.5616C55.0786 16.5421 54.9807 16.5545 54.8931 16.5823C54.0032 16.1169 52.9252 15.8982 51.7604 15.9652C49.8103 16.077 47.9379 16.5859 46.1226 16.0648C44.8059 15.6868 43.5999 14.8869 42.9086 13.8664C44.2517 12.8597 45.4772 12.5766 47.4103 11.8019C49.9891 10.7692 48.7749 6.69114 53.4187 7.36269C53.589 7.392 53.7552 7.42361 53.9207 7.45647C54.1176 7.49562 54.3143 7.53623 54.5026 7.57977C56.8609 8.11232 58.5973 9.00996 59.6668 10.249C60.5325 11.2545 60.9374 12.4745 60.8677 13.8749Z" fill="#DD3350"/>
<path d="M55.1246 17.9444C54.5137 17.3912 53.7095 16.9354 52.7499 16.8276C51.7848 16.7202 50.7719 16.9158 49.7779 17.041C47.9106 17.2779 46.1629 17.2124 44.6439 16.4787C43.6464 15.9966 42.7336 15.3531 42.1189 14.5335C41.8528 14.7824 41.5765 15.0656 41.2855 15.3912C39.6246 17.2417 37.8395 20.1 34.7188 20.6083L34.717 20.6078C32.2778 22.8034 32.1059 26.0353 33.5688 28.2296C34.1215 28.5101 34.6233 28.7381 35.273 28.9248C36.5403 29.2886 37.8708 29.5335 39.2412 29.6629C40.3133 29.7644 41.2796 29.7816 42.385 29.455C43.1843 29.2202 43.9527 28.8974 44.7049 28.5415C46.1768 27.8457 47.6445 27.01 49.2304 26.5829C50.8546 26.1452 52.3457 26.2472 53.6893 26.8329C55.1837 27.5603 55.7141 28.0215 55.9713 27.6614C56.9547 26.2844 61.5676 25.4037 57.6158 21.3485C56.7076 20.2681 56.1969 18.9139 55.1246 17.9444Z" fill="#ED4056"/>
<path d="M53.153 27.6179C53.174 27.6281 53.1976 27.6359 53.2199 27.6417C53.1817 27.7142 53.1443 27.7837 53.1087 27.8536C52.9415 28.1735 52.7955 28.4902 52.6739 28.7874C52.626 28.9047 52.5786 29.0207 52.5279 29.1419C52.0479 30.2886 51.5114 31.3591 50.9274 32.3282C50.7761 32.5819 50.6081 32.8488 50.4277 33.1193C49.8372 34.0054 49.1974 34.808 48.5156 35.5162C45.4494 38.2298 41.6244 38.8396 39.8821 38.57C39.6564 38.5342 39.4618 38.512 39.2958 38.4986C35.4339 37.8679 31.3863 35.5111 26.3573 34.1486C27.8235 31.9468 30.1882 29.5616 33.2188 29.4487C33.7205 29.4301 34.1982 29.5333 34.3513 29.5833C34.8879 29.7594 35.4344 29.9089 35.9953 30.0401C37.1383 30.3068 38.3423 30.4617 39.5545 30.552C41.1759 30.6752 42.6645 30.3087 44.2344 29.6503C47.1951 28.4085 50.1573 26.2614 53.153 27.6179Z" fill="#DD3350"/>
<path d="M38.4763 6.46757C41.1491 6.52074 41.7655 9.9457 40.2286 12.7569C38.6907 15.5662 35.9656 19.9493 29.0821 18.5455C26.5837 18.0364 24.6375 18.1172 22.9823 18.603C22.2713 18.3983 21.6182 18.1234 21.0197 17.7462C20.1164 17.177 19.5381 16.3466 18.9436 15.5524C17.9407 14.2074 16.7362 12.9564 14.9262 12.337C12.4758 11.4994 7.69234 12.4512 6.47222 10.1483L7.11993 8.35118C7.42547 7.54858 7.69259 6.76252 8.06934 6.00577C10.0565 2.92203 12.8504 1.40245 16.5285 1.39136C19.5911 1.93417 21.2274 4.16591 23.5757 5.62603C24.7553 6.35871 26.0618 6.9884 27.6768 6.98505C29.2568 6.98086 30.6311 6.01812 32.0904 5.45857C32.5826 5.59129 33.099 5.71207 33.634 5.81841C35.2239 6.13472 36.9155 6.32019 38.6451 6.44077C38.5362 6.45835 38.4763 6.46757 38.4763 6.46757Z" fill="#ED4056"/>
<path d="M32.5363 28.5283C32.5581 28.5859 32.586 28.6093 32.5668 28.6347C32.5445 28.664 32.5156 28.6905 32.4154 28.6928C29.3551 29.1965 26.9845 31.6018 25.4471 33.9133C25.4297 33.9097 25.4143 33.9053 25.3987 33.9022C25.3398 33.889 25.2814 33.8744 25.2261 33.8618C20.2457 32.7081 14.8028 32.8859 11.1778 31.8691C8.6638 31.0098 8.37414 30.6489 11.2431 28.4121C14.1121 26.1754 16.1159 24.5681 19.4743 21.5245C20.7011 20.4117 21.9717 19.7663 23.3411 19.4651C23.3598 19.4703 23.6095 19.4299 23.809 19.3755C26.0669 19.011 28.6022 19.5199 31.655 20.3807C32.2886 20.5595 32.8808 20.6547 33.435 20.6788C31.3023 23.0529 31.1185 26.257 32.5363 28.5283Z" fill="#ED4056"/>
<path d="M30.8946 5.10142C29.8891 5.57013 28.8985 6.06877 27.7985 6.13533C26.0669 6.23917 24.4939 5.13994 23.3506 4.31641C22.1271 3.43301 21.065 2.42944 19.8006 1.66473C20.1148 1.71372 20.4273 1.76815 20.7341 1.82927C22.7024 2.22073 24.4698 2.85293 26.7062 3.6526C27.9206 4.08718 29.2906 4.5785 30.8946 5.10142Z" fill="#DD3350"/>
<path d="M18.693 16.648C19.4849 17.7157 20.537 18.4986 21.8445 19.0135C19.5223 20.0217 17.7257 21.8513 15.538 23.8463C11.8743 27.1898 6.88213 29.8344 4.90673 28.2325C4.31332 27.571 3.86077 26.8457 3.61464 26.0722C2.75436 23.3608 2.70749 20.4854 4.45853 15.714C5.26862 15.5733 6.05975 15.3849 6.80299 14.9532C7.91042 14.3102 8.35759 13.2114 9.27012 12.4224C10.7504 12.6474 12.3286 12.5388 13.8007 12.8103C16.2008 13.2528 17.5116 15.0529 18.693 16.648Z" fill="#DD3350"/>
<path d="M13.5772 38.7006C13.4062 38.6801 13.2374 38.6573 13.0696 38.6313C12.3971 38.5338 11.7555 38.4182 11.1547 38.2776C10.9549 38.2288 10.7574 38.179 10.5664 38.1258C7.43412 37.2462 3.49947 35.7754 2.61639 32.9977C2.56107 32.8237 2.49884 32.6483 2.42815 32.4697C4.96238 33.2183 6.75901 34.9673 8.12102 36.9301C8.79049 36.2315 9.84005 35.9075 11.0599 36.4429C12.1492 36.9223 13.0256 37.7743 13.5772 38.7006Z" fill="#C62C38"/>
<path d="M38.6166 44.7433C37.8408 44.6133 37.0581 44.4138 36.2616 44.1679C36.0977 44.1172 35.934 44.0651 35.7696 44.0096C35.6047 43.9556 35.4385 43.8999 35.273 43.8415C34.9413 43.7272 34.6051 43.6046 34.2675 43.4785C31.427 42.4138 28.3536 41.0073 24.7878 40.1576C24.6085 40.1145 24.4269 40.0739 24.2446 40.0345L24.2394 40.0335C24.0589 39.9945 23.8781 39.9571 23.6967 39.9209C22.7186 39.7264 21.7272 39.5773 20.7414 39.4524C20.7358 39.4528 20.7289 39.4513 20.722 39.4501C20.5686 39.4316 20.4157 39.4117 20.262 39.3948C20.1639 39.3829 20.0661 39.3709 19.9675 39.3605C19.896 39.3523 19.8264 39.3445 19.7567 39.3366C19.7475 39.3364 19.7388 39.3345 19.7298 39.3343C19.4084 39.2974 19.0857 39.265 18.7668 39.2317C18.7648 39.2328 18.7612 39.2321 18.7579 39.2315C18.5893 39.2146 18.419 39.1974 18.25 39.1819C18.2231 39.1796 18.1965 39.1758 18.1673 39.1746C18.1337 39.1693 18.1009 39.1675 18.0671 39.1637C17.9613 39.1532 17.8533 39.1438 17.7475 39.1333C17.7063 39.1296 17.6648 39.126 17.6251 39.1227C17.6233 39.1222 17.6233 39.1222 17.6233 39.1222C17.5336 39.1134 17.4455 39.1051 17.3577 39.0965C17.3001 39.091 17.2445 39.086 17.1869 39.0806C17.1385 39.0753 17.0898 39.0718 17.0409 39.0682C16.9961 39.0638 16.953 39.0599 16.9097 39.0557C16.8718 39.0527 16.836 39.0485 16.8001 39.0458C16.849 38.9679 16.9013 38.8924 16.9569 38.8174C17.2166 38.0751 17.8246 37.5154 18.6767 37.2773C19.1528 36.9993 19.7785 36.8386 20.4646 36.8601C21.4217 36.889 22.3058 37.1327 23.1133 37.5154C24.673 38.2242 25.9421 39.5376 27.6908 39.8174C28.6297 39.9694 29.6252 40 30.5393 40.248C31.5471 40.5225 32.381 40.9223 33.1985 41.4758C34.5969 42.4226 35.882 43.5022 37.6884 43.8978C38.2257 44.0153 38.5518 44.3592 38.6166 44.7433Z" fill="#C62C38"/>
<path d="M48.8107 43.2271C48.7995 43.234 48.7887 43.2392 48.7774 43.2461C48.7423 43.2648 48.7111 43.2828 48.6765 43.2999C48.6058 43.3387 48.5357 43.3761 48.466 43.4119C48.3128 43.4917 48.1587 43.5696 48.0024 43.6411C47.921 43.6792 47.8395 43.7173 47.7578 43.7554C47.7409 43.7626 47.7235 43.7714 47.7048 43.7781C47.6029 43.8226 47.501 43.8672 47.3983 43.9087C47.282 43.9581 47.1649 44.0041 47.0482 44.0487C46.9314 44.0935 46.8128 44.1377 46.6934 44.1789C46.4558 44.2643 46.213 44.3414 45.9668 44.4117C45.9548 44.4153 45.9425 44.419 45.9305 44.4226C45.8193 44.4548 45.7069 44.4852 45.5947 44.5143C45.5448 44.5271 45.4943 44.5411 45.4431 44.5522C45.4288 44.5568 45.4149 44.5601 45.4014 44.562C45.2152 44.611 45.0254 44.6533 44.8348 44.6908C44.7227 44.7138 44.6089 44.7364 44.4942 44.7559C44.4742 44.7609 44.4548 44.7647 44.4338 44.7665C44.3282 44.7862 44.2212 44.8042 44.1134 44.8191C44.0798 44.826 44.0452 44.8312 44.0091 44.8346C43.9413 44.8452 43.8739 44.8545 43.8071 44.8624C43.7297 44.8741 43.6511 44.8842 43.5709 44.8923C43.5018 44.9014 43.4349 44.9091 43.3647 44.9147C43.2848 44.9229 43.2047 44.9313 43.1255 44.9365C43.0869 44.9424 43.0472 44.9451 43.008 44.9464C42.9037 44.9558 42.7962 44.9631 42.6891 44.969C42.6379 44.9738 42.5857 44.9755 42.5352 44.9775C42.4617 44.9826 42.389 44.9847 42.3147 44.9866C42.232 44.9912 42.1503 44.993 42.0686 44.9949C42.0107 44.997 41.9533 44.9976 41.8939 44.9979C41.8086 44.9991 41.7233 45.0002 41.6388 44.9985C41.563 44.9985 41.4857 44.9983 41.4086 44.9964C41.3476 44.9964 41.2872 44.9949 41.2267 44.9935C41.0874 44.9899 40.9491 44.9834 40.8087 44.9767C40.7452 44.9732 40.683 44.9713 40.6197 44.9662C40.0775 44.0464 39.8396 43.0089 40.6881 42.1258C41.4713 41.3125 42.9166 40.88 44.1295 41.2346C44.8858 41.1134 45.6913 41.162 46.4161 41.3876C47.3768 41.6861 48.5001 42.3849 48.8107 43.2271Z" fill="#C62C38"/>
<path d="M59.8569 24.3841C59.4445 23.8069 59.0601 23.216 58.6683 22.6284C58.5592 22.7782 58.4501 22.9275 58.3407 23.0757C57.2986 24.4925 56.2419 25.8398 55.4218 27.1182C55.3227 27.2714 55.2287 27.4232 55.1372 27.5744C55.3736 27.6935 55.6134 27.8086 55.8531 27.921C56.6455 28.293 57.3875 28.7213 58.1804 29.0918C58.4785 29.2313 58.782 29.3594 59.0906 29.4827C59.6254 28.7529 60.198 28.0018 60.7656 27.2304C61.0258 26.8777 61.2855 26.5203 61.5406 26.159C60.9392 25.5926 60.4267 24.9698 59.8569 24.3841Z" fill="#AA2929"/>
<path d="M58.005 29.481C56.557 28.2723 52.2412 27.2474 51.6942 27.2164C52.1795 27.2706 52.6658 27.3972 53.153 27.6179C53.174 27.6281 53.1975 27.6359 53.2198 27.6417C53.1817 27.7142 53.1443 27.7837 53.1087 27.8536C52.9414 28.1735 52.7954 28.4902 52.6738 28.7874C52.6259 28.9047 52.5785 29.0206 52.5275 29.1416C52.0476 30.2884 51.511 31.3589 50.9271 32.328C50.7757 32.5817 50.6077 32.8486 50.4274 33.119C49.8368 34.0052 49.1971 34.8078 48.5155 35.5159C48.3739 35.6411 48.2305 35.7604 48.0858 35.8768C47.9631 37.0996 48.2702 38.3929 48.6605 39.5007C48.9919 40.4406 49.4875 41.4613 50.1872 42.3491C50.2028 42.3401 50.2148 42.3305 50.2269 42.3209C50.2853 42.2796 50.3421 42.2382 50.3975 42.1948C50.4679 42.144 50.535 42.0925 50.6026 42.0393C50.684 41.9769 50.7657 41.9133 50.8444 41.8473L50.8951 41.8076C50.8974 41.8065 50.8999 41.804 50.9025 41.8015C50.9699 41.7485 51.0344 41.6935 51.0992 41.637C51.101 41.6374 51.1015 41.6359 51.1018 41.6344C51.215 41.5392 51.3274 41.4408 51.438 41.342C51.4386 41.3405 51.4406 41.3395 51.4406 41.3395C52.5227 40.3654 53.4905 39.2235 54.3457 37.9388C54.5293 37.6629 54.7078 37.3799 54.8805 37.0912C55.5074 36.0523 56.0663 34.9317 56.5616 33.7458C56.612 33.626 56.663 33.5048 56.7119 33.3832C56.8231 33.1094 56.9514 32.8331 57.0981 32.5513C57.3135 32.1322 57.5655 31.7071 57.8465 31.2723C58.098 30.88 58.3723 30.4803 58.6612 30.0744C58.454 29.8708 58.2358 29.6734 58.005 29.481Z" fill="#C62C38"/>
<path d="M39.8736 32.3709C39.8736 32.3709 40.0101 34.5488 40.2504 34.6721C40.4906 34.7954 40.6458 37.9958 40.6458 37.9958C41.3442 38.2857 34.1249 36.7988 36.6077 37.8019C41.9197 39.9489 45.4615 39.3115 48.1778 37.8848C48.2593 37.8226 48.341 37.7588 48.4196 37.6929C48.4365 37.6797 48.4534 37.6665 48.4703 37.6531C48.4703 37.6531 48.4749 37.6495 48.4777 37.647C48.5451 37.5941 48.6101 37.5375 48.6744 37.4825C48.6749 37.481 48.6767 37.4814 48.6767 37.4814C48.7904 37.3847 48.9029 37.2863 49.0135 37.1877C49.014 37.1863 49.0161 37.1852 49.0161 37.1852C50.0981 36.2112 51.066 35.0692 51.9212 33.7845C52.1048 33.5086 52.2833 33.2256 52.4559 32.9369C53.0829 31.898 53.6417 30.7774 54.137 29.5915C54.1875 29.4718 54.2385 29.3506 54.2876 29.229C54.3985 28.9551 54.7297 28.3198 54.8726 28.0303C54.8933 27.9884 52.4067 27.2139 52.0277 27.2629C51.2868 27.1157 39.8736 32.3709 39.8736 32.3709Z" fill="#DD3350"/>
<path d="M59.5526 21.3744C58.9523 21.1827 58.4201 20.7312 58.2175 20.4749C57.8246 19.9832 58.1914 19.1733 58.3466 18.7512C58.3466 18.7512 59.4182 16.4982 59.4532 16.3799C59.4883 16.2616 60.0251 15.185 60.7586 14.8358C61.2386 14.6068 61.9916 14.5528 62.4936 14.6964C62.1767 17.0694 60.9684 19.2924 59.5526 21.3744Z" fill="#E25A5A"/>
<path d="M20.4572 14.8369C20.5158 15.88 20.6462 17.7171 22.7051 18.5543C24.3691 19.2308 24.9169 17.7931 29.2529 18.58C29.8063 18.6805 30.6963 18.8484 31.5123 18.8218L29.0728 16.6009L21.1408 13.1617L20.4572 14.8369Z" fill="#ED4056"/>
<path opacity="0.4" d="M52.6163 5.8205L16.7867 35.1218C16.6376 35.1073 16.4893 35.0912 16.3421 35.0772C16.3385 35.0766 16.3367 35.0762 16.3328 35.077C16.1625 35.0598 15.994 35.0429 15.825 35.0274C15.7983 35.0236 15.7697 35.0209 15.7423 35.0201C15.7087 35.0148 15.6759 35.0129 15.6421 35.0092C15.5361 34.9987 15.4283 34.9893 15.3225 34.9788C15.2813 34.975 15.2398 34.9715 15.1983 34.9677C15.105 34.9583 15.0131 34.9506 14.9199 34.9409C14.8676 34.9365 14.8141 34.9305 14.7619 34.9261C14.7424 34.9238 14.7222 34.9227 14.7027 34.9204C14.5752 34.9087 14.4494 34.8972 14.3234 34.8857C14.3234 34.8857 14.3257 34.8846 14.3272 34.885C14.0417 34.8584 13.7576 34.8321 13.4777 34.8051C13.354 34.7925 13.23 34.7814 13.1079 34.7693C12.8623 34.7446 12.6205 34.7192 12.3823 34.6943C12.023 34.6545 11.6693 34.6144 11.3225 34.5696C11.093 34.5405 10.8674 34.5107 10.6446 34.477C9.97204 34.3795 9.33048 34.2639 8.72964 34.1233C8.52987 34.0745 8.33241 34.0247 8.14161 33.9715C7.96745 33.9233 7.79304 33.8704 7.61811 33.813L5.86528 33.1323C4.98963 32.7301 4.1378 32.2424 3.37586 31.6818L33.8028 4.41962C33.8791 4.43636 33.9575 4.45186 34.0359 4.46756C39.6411 5.58227 46.6835 4.99509 52.6163 5.8205Z" fill="white"/>
<path opacity="0.4" d="M60.5076 8.8814L26.6234 37.3047C25.2767 36.8166 23.8627 36.3617 22.3629 36.0031C22.1837 35.9597 22.0018 35.9191 21.8197 35.88L21.8143 35.8789C21.6338 35.84 21.453 35.8025 21.2719 35.7665C20.8168 35.6761 20.3589 35.5955 19.9004 35.5224L55.3031 6.32184C57.5523 6.8747 59.2949 7.75119 60.5076 8.8814Z" fill="white"/>
<path d="M35.651 11.4623C37.0015 11.6743 37.7348 12.7158 37.2804 13.7767L34.6711 19.8688C34.2168 20.9298 32.74 21.6243 31.3893 21.4125L17.1249 19.1734C15.7744 18.9614 15.0411 17.9199 15.4955 16.859L18.1047 10.7669C18.5591 9.70595 20.0358 9.01138 21.3866 9.22323L35.651 11.4623Z" fill="white"/>
<path d="M20.8918 10.82C20.933 10.82 20.9727 10.823 21.0096 10.8288L35.2738 13.0679C35.3593 13.0813 35.4019 13.1064 35.409 13.1164C35.4162 13.1265 35.4216 13.1692 35.3926 13.2362L32.7831 19.3283C32.6699 19.5923 32.2583 19.8152 31.8844 19.8152C31.8432 19.8152 31.8035 19.8123 31.7666 19.8064L17.5024 17.5674C17.4169 17.554 17.3743 17.5288 17.3674 17.5188C17.3603 17.5085 17.3549 17.466 17.3838 17.3986L19.9928 11.3067C20.1058 11.043 20.5174 10.82 20.8918 10.82ZM20.8918 10.0026C20.0938 10.0026 19.3013 10.4472 19.0488 11.0369L16.4395 17.129C16.3171 17.4143 16.3389 17.6978 16.5002 17.9268C16.6616 18.156 16.9505 18.3134 17.3134 18.3706L31.5778 20.6097C31.677 20.6251 31.7799 20.6331 31.8841 20.6331C32.6819 20.6331 33.4743 20.1885 33.7269 19.5988L36.3364 13.5064C36.4586 13.2213 36.4371 12.9381 36.2757 12.7089C36.1144 12.4796 35.8255 12.322 35.4623 12.2651L21.1981 10.026C21.099 10.0103 20.996 10.0026 20.8918 10.0026Z" fill="#00B2BC"/>
<path d="M22.1448 13.4108L30.5504 14.658" stroke="#889E9E" stroke-width="4.8816" stroke-miterlimit="10" stroke-linecap="round" stroke-linejoin="round"/>
<path d="M26.941 16.717L28.6316 16.9814" stroke="#FF4C43" stroke-width="6.8342" stroke-miterlimit="10" stroke-linecap="round" stroke-linejoin="round"/>
<path d="M25.3153 15.4016L24.5516 17.1847L20.4041 16.5665L21.1678 14.7834L25.3153 15.4016Z" fill="#546868"/>
<path d="M20.4041 16.5665L21.1678 14.7834" stroke="white" stroke-width="1.9526" stroke-miterlimit="10" stroke-linecap="round"/>
<path d="M21.7864 16.7805L22.5502 14.9972" stroke="white" stroke-width="1.9526" stroke-miterlimit="10" stroke-linecap="round"/>
<path d="M22.4773 16.8996L23.2411 15.1165" stroke="white" stroke-width="0.9763" stroke-miterlimit="10" stroke-linecap="round"/>
<path d="M23.7943 17.0746L24.558 15.2913" stroke="white" stroke-width="1.9526" stroke-miterlimit="10" stroke-linecap="round"/>
<path opacity="0.4" d="M0.674865 13.6627C4.79085 10.6131 20.6181 13.0274 21.3844 17.284L22.553 27.9386L55.1689 34.2474L2.54628 35.391L0.674865 13.6627Z" fill="#773232"/>
</svg>
