<svg width="47" height="42" viewBox="0 0 47 42" fill="none" xmlns="http://www.w3.org/2000/svg">
<path d="M36.6885 22.9802C38.6256 19.3894 40.3054 15.3071 40.771 11.0914C39.8355 10.1728 39.5085 8.67636 39.1652 7.39794C38.1557 8.02592 37.1821 8.82609 36.1136 9.56019C36.013 8.31525 36.6267 6.9743 37.1814 5.73904C36.1777 5.19386 35.0941 5.02387 34.2604 4.17834C33.9476 4.3109 33.6507 4.45359 33.3775 4.59715C30.3623 6.18075 27.8249 8.76444 24.8343 10.4511C19.758 13.3148 14.0779 13.9908 8.94741 16.5842C6.86376 17.6371 5.09525 19.3445 3.62645 21.2751C0.887577 24.8747 -1.04602 29.958 0.616783 34.5939C2.67113 40.321 9.06974 42.2111 14.0779 41.9816C18.8122 41.7645 23.1857 38.9884 26.8079 35.7785C30.7681 32.2682 34.0889 27.798 36.6885 22.9802ZM5.26905 24.3458C4.733 25.1346 4.24365 25.9651 3.8046 26.8243C3.36831 27.6777 3.15295 28.5968 2.79901 29.4846C2.71745 29.6889 2.39281 29.6858 2.41696 29.4181C2.70874 26.1901 5.02835 22.4892 7.34478 20.5599C7.52057 20.9259 7.69674 21.2914 7.87291 21.6569C6.89938 22.4236 5.98405 23.2951 5.26905 24.3458ZM33.0513 7.93344C30.8576 10.4542 28.1464 12.8679 25.3842 14.5796C22.8789 16.1328 20.18 16.892 17.4067 17.6169C14.8919 18.2744 12.2409 18.8768 9.93044 20.2283C9.75228 19.858 9.57452 19.4876 9.39637 19.1177C11.1934 18.0511 13.1155 17.3637 15.1552 16.8269C18.225 16.0192 21.363 15.4784 24.2614 14.0331C25.8189 13.2558 27.4769 12.5367 28.8769 11.4349C30.2993 10.3159 31.6185 9.06256 32.8973 7.74892C33.005 7.63795 33.1522 7.81762 33.0513 7.93344Z" fill="#2A1033"/>
<path d="M29.3059 24.7734C25.0606 29.8483 19.7602 33.9632 13.7726 35.8855C10.8068 36.8376 7.3209 37.1362 4.90311 35.0021C1.80634 32.2691 2.04466 26.6045 4.45295 23.1176C6.86124 19.6307 10.7585 17.8794 14.5517 16.6406C18.3449 15.4018 22.3158 14.4761 25.6212 12.0642C27.9626 10.356 29.8871 7.95458 32.3904 6.55903C33.9122 5.71042 36.5695 5.0067 38.1595 6.07417C40.1303 7.39706 39.0531 8.58036 38.0969 10.5827C35.6677 15.6691 32.8429 20.5454 29.3059 24.7734Z" fill="#411C51"/>
<path d="M31.3544 17.8983C25.5164 24.9193 17.2471 29.3737 8.67541 30.1148C6.76953 30.2795 4.4713 30.0351 3.55557 28.1688C2.70556 26.4364 3.57379 24.2556 4.7615 22.7896C9.49019 16.9515 17.4047 17.4073 23.3073 13.9112C26.1641 12.2193 29.0653 6.91315 32.6668 7.84234C37.3904 9.06175 33.1091 15.7881 31.3544 17.8983Z" fill="#52246B"/>
<path d="M2.41636 29.4181C2.39221 29.6858 2.71685 29.6889 2.79841 29.4846C3.15235 28.5968 3.36773 27.6777 3.80401 26.8243C4.24347 25.9651 4.73281 25.1341 5.26847 24.3458C5.98347 23.2951 6.8988 22.4236 7.87233 21.6573C7.69576 21.2918 7.51997 20.9263 7.34419 20.5604C5.02775 22.4897 2.70854 26.1901 2.41636 29.4181Z" fill="white"/>
<path d="M32.8969 7.74893C31.6182 9.06257 30.299 10.3159 28.8765 11.4349C27.4766 12.5367 25.8186 13.2558 24.2611 14.0331C21.3631 15.4789 18.2247 16.0192 15.1549 16.8269C13.1152 17.3637 11.1934 18.0511 9.39604 19.1177C9.5742 19.4876 9.75196 19.858 9.93012 20.2283C12.2406 18.8773 14.8916 18.2744 17.4064 17.6169C20.1801 16.892 22.879 16.1328 25.3839 14.5796C28.1461 12.8679 30.8572 10.4542 33.051 7.93345C33.1523 7.81763 33.005 7.63795 32.8969 7.74893Z" fill="white"/>
<path d="M37.1814 5.73909C36.6267 6.9739 36.0131 8.31529 36.1136 9.56024C37.1822 8.82569 38.1557 8.02596 39.1653 7.39799C39.5085 8.6764 39.8355 10.1728 40.7711 11.0914C40.8906 11.2086 41.0185 11.3182 41.1595 11.4147C42.7059 7.878 42.3674 5.13841 41.1096 3.61426C41.0613 3.66094 41.0122 3.70543 40.9643 3.75255C40.6582 4.05245 40.4828 4.24181 40.0869 4.28761C40.005 4.29686 39.9112 4.2057 39.8997 4.1185C39.8427 3.69354 40.0014 3.26594 40.2746 2.86387C38.6791 1.82282 36.3385 2.10378 34.2323 4.15197C34.2418 4.16166 34.2513 4.16959 34.2604 4.17883C35.0942 5.02392 36.1778 5.1939 37.1814 5.73909ZM37.4352 8.03478C37.2697 8.23074 37.0349 7.93084 37.1846 7.73399C37.9415 6.7361 38.8545 5.93638 39.5414 4.86406C39.6099 4.75661 39.7575 4.85613 39.6982 4.97195C39.1007 6.14335 38.2598 7.0611 37.4352 8.03478ZM41.148 4.72799C41.2842 6.25213 41.5474 7.93084 41.1294 9.4268C41.0759 9.61748 40.7861 9.58137 40.8095 9.37131C40.9833 7.80225 40.9781 6.30188 40.948 4.72269C40.9449 4.57517 41.1357 4.58927 41.148 4.72799ZM39.3308 3.41301C39.4788 3.4271 39.4745 3.68253 39.3248 3.67064C38.1102 3.5764 36.9478 3.81068 35.7518 4.00048C35.58 4.02778 35.5134 3.7411 35.6892 3.70411C36.8841 3.45133 38.1153 3.29851 39.3308 3.41301Z" fill="#7E963D"/>
<path d="M39.5411 4.86405C38.8542 5.93637 37.9413 6.73609 37.1843 7.73399C37.0346 7.93084 37.2694 8.23074 37.4349 8.03477C38.2596 7.0611 39.1005 6.14335 39.6975 4.97194C39.7573 4.85657 39.61 4.75704 39.5411 4.86405Z" fill="#4C6213"/>
<path d="M40.8093 9.3709C40.7859 9.58096 41.0757 9.61706 41.1292 9.42637C41.5472 7.93041 41.284 6.25171 41.1478 4.72756C41.1355 4.58928 40.9447 4.57475 40.9478 4.72184C40.9779 6.30191 40.9831 7.80228 40.8093 9.3709Z" fill="#4C6213"/>
<path d="M35.6887 3.7041C35.5129 3.74109 35.5795 4.02778 35.7513 4.00048C36.9473 3.81067 38.1097 3.5764 39.3243 3.67064C39.474 3.68253 39.4787 3.4271 39.3303 3.41301C38.1152 3.29851 36.884 3.45132 35.6887 3.7041Z" fill="#4C6213"/>
<path d="M39.9004 4.11804C39.9118 4.20568 40.0057 4.29684 40.0876 4.28715C40.4835 4.24135 40.6589 4.05243 40.965 3.75209C41.0129 3.70497 41.0619 3.66049 41.1102 3.61382C41.615 3.12852 42.1313 2.68109 42.7144 2.30897C44.0443 1.46081 45.4937 1.27321 46.9783 1.46874C47.0065 0.993132 47.0128 0.519282 46.9625 0.0520424C45.4901 -0.127191 44.0661 0.159494 42.703 0.866299C42.0541 1.20275 40.8818 1.97032 40.2757 2.86252C40.0017 3.26591 39.8429 3.69308 39.9004 4.11804Z" fill="#7E963D"/>
</svg>
